<mxfile host="app.diagrams.net" agent="Mozilla/5.0 (Windows NT 10.0; Win64; x64) AppleWebKit/537.36 (KHTML, like Gecko) Chrome/129.0.0.0 Safari/537.36" version="24.7.17">
  <diagram name="Page-1" id="MYYQrLMORQbGh_MgbBkc">
    <mxGraphModel dx="1050" dy="522" grid="1" gridSize="10" guides="1" tooltips="1" connect="1" arrows="1" fold="1" page="1" pageScale="1" pageWidth="850" pageHeight="1100" math="0" shadow="0">
      <root>
        <mxCell id="0" />
        <mxCell id="1" parent="0" />
        <mxCell id="kVAftEwxWt6-AihrWydB-1" value="" style="endArrow=none;html=1;rounded=0;" edge="1" parent="1">
          <mxGeometry width="50" height="50" relative="1" as="geometry">
            <mxPoint x="200" y="240" as="sourcePoint" />
            <mxPoint x="805" y="240" as="targetPoint" />
          </mxGeometry>
        </mxCell>
        <mxCell id="kVAftEwxWt6-AihrWydB-8" value="" style="shape=ellipse;html=1;dashed=0;whiteSpace=wrap;aspect=fixed;perimeter=ellipsePerimeter;fillColor=#0000CC;" vertex="1" parent="1">
          <mxGeometry x="710" y="230" width="20" height="20" as="geometry" />
        </mxCell>
        <mxCell id="kVAftEwxWt6-AihrWydB-10" value="" style="endArrow=none;html=1;rounded=0;" edge="1" parent="1" target="kVAftEwxWt6-AihrWydB-7">
          <mxGeometry width="50" height="50" relative="1" as="geometry">
            <mxPoint x="80" y="240" as="sourcePoint" />
            <mxPoint x="815" y="240" as="targetPoint" />
          </mxGeometry>
        </mxCell>
        <mxCell id="kVAftEwxWt6-AihrWydB-7" value="" style="shape=ellipse;html=1;dashed=0;whiteSpace=wrap;aspect=fixed;perimeter=ellipsePerimeter;fillColor=#0000CC;" vertex="1" parent="1">
          <mxGeometry x="190" y="230" width="20" height="20" as="geometry" />
        </mxCell>
        <mxCell id="kVAftEwxWt6-AihrWydB-12" value="" style="shape=image;verticalLabelPosition=bottom;labelBackgroundColor=default;verticalAlign=top;aspect=fixed;imageAspect=0;image=data:image/png,iVBORw0KGgoAAAANSUhEUgAAAKcAAADSCAYAAAAv+dCeAAAAAXNSR0IArs4c6QAAAARnQU1BAACxjwv8YQUAAAAJcEhZcwAAEnQAABJ0Ad5mH3gAAJFESURBVHhe7f1nkGRXlh4Ifq5VeLiH1iIjUiOhUQqlgC7RJVqze9hLcpbkcLg9tkbOj/1D2z+79WttzYZma5wdLmfGhsPpppFNI6eb1dViCqUaVV0FLRKJlJGhtdbh2j32+859L8IjkQAykZmFTADH48RTV5577hH33ndfYH19fR+fwCdwH0LQO34Cn8B9B58w5ydw38InzPkJ3LfwCXN+Avct3NfMGQgEvDN3LgwGg4b+s/39fezX6NPJrfNcO4Y8OD+4f6v4Cdw3cF976z4DVioVVKtVY0SBz6T+c0EwoGug5oXRtXj0AzHcYbKfwIcI9y1zivHC4TBisZid12o1uy8GrVZrKJNhxbSCYChkx5oYmFI0EHRS1hgzoH+uirfGqyZ3P4H7AO5rybm9vY2ZmRlsbW2hVCrZvUQigVSqAUnDFKKxqB3T6TRCwRByuRwqpbJJUXIqa1gj8wYQCpCBxeS6bUzr2NCXxgJFccj/XphP4MOD+445JfGkwiORCF588UX8q3/1r7CysmLXxWLRmFQSs6EhiaamJjRmMsi2NKOtrR0Dg4M4c+Ysuru7kIjFEQlLolZRZhwJ3lCEUphStsIL8Z1MA8eclLb7NBWUv4efMOeHD/clc0qFi3FGRkbwh3/4h3jhhReMIZPJBDKZNMKhIHa3N1HI7aJULhDLqFTJYCGaAQwzcOwYvvCFL+CpJ55Af3cvWlvaEU+myZRAoVQx6RmiybDPsxrTlZSV9nfMyXRUkI8Ac5pp8y5QrzHuV7hv1bqIF6KUY/nwn/7Tf8J3v/tdMmwAn3riMXzxs0+hI5PE9voiNteWsLg4j6XlZaxurGNlcwPLjFMisza3dOLYwCk8/uRn8Rix79hxxBJplGmzBoJh6wDS8UGqfil8hyKHj4eN+yDy6SfMeQ9BBJRTJDvyP//n/4x/+0d/iPz2Br7w5Dn83d/4Oh47OYBQNY9woIpKOY+t7S2MTk/i/OUruDg6ienFDSytlajYE+jqP47HPvU5fPYLz+KRx5+kOdBME8Fy4V+VklN2KqUoQx86UUcb90Fj0AedOUP/7J/9s+945/cViHhC2Zghquvh4ePIZhuxtrSAmbERLE6OoTkVRVMygureGpBfRypSRn9vC5585BSefuIcHjl9Cr20RaNspK21FVy/dhnnz7+JsbEJxCNJZNNNKBfp4VPK0mdiazrJaaf8JzvUzj10/x4ceC/mfBDgvmVOEVYoyRmijakhpRPHj6OxIYVZevCLS1TpO1vo6G5HR0cz+aqISKAMlHNApUDmi6CnowOnh47h0VMn8NCpIUrXHK6PXsbY+DVcuXgR68vraG1qRRsdqmCQtmglzyPVvIaiXCkOGVPAk3fK0/sXPmHOXxJU6SRVK2W0tbaiIZ3GOBn0yuiIMWh/Xw+as3R4ijljLrVJtVwhn1Ll1+jZx0PobMvizNnj6BvspEQuYnl+GlcvXsD1KxfJyztk0AZkMwnan7JBA9YhfBa1BO145HDfwyfM+csEEjsei6KnpweN2QzmFuYxMT6GUj5Hr7wDjckkGVg2Y8g8d5tF2qdHXi2jXCnSCdpHR087zp49id7uNkrYXcxNX8fFC6/wOIoGmghdHe3miJXKVPdiw/r2fcCYU/AgM+iDw5wksqlb2qEaeD95+jRi8Thef+V1TE9MIp1I0t7sQThCxhRPWaNIRVtUMiYZleeUv0jEwhjq68TwYBdi4Qrt0XmMXLmAkauXbLjq2PETSDZkUdOcfR2D0gQ9aGzfoXjQpdP9DA+U5BQbSO1qzJPuEjo7Oin99jE+Mor5mTkyXRQDfd0Ih6Ta/WEhMZVieldiMErTcn4PiUgAZ08No7erHVvrK5ifn7Ox1fX1LfT2DiKZSKNQlMRlHHUMMvg+zQsxppjyVhjTD/sJ3D48cMwpDJFRxJyaxmxtbiUzbeP69TGsra2ipSlFZmtGaL+KMMMphtSzpJ4kqa5ClJ/JaAiJcBDhQAWd7c04MdTPxxVMT0/TaRrD6uo6mptb0JhuMOYKhiN2NGZTUgT/aFDPgOwFCquZrnKZThrB7FfXV94Z1js1OHLx8YYHjDn9lpPTso8SpVq6sRlNLW2YmV/E5OQYosEihvo7kElGsU/mCAY1hal4NQSJYsywzsmIQVAC10p0nvJ0hlLo7++xIaXl5WVcuzaCpeVF3utHT2+fSV+teLKBe6VYz2A+1N/jaZgMrbUAmvEqFAsI0smyKVMzF7w03N8hHLn4eMMDJzkdqHEdo1RqATRkKCmjcYyPj2BlYRKZhii629tsmjMUdNOUmmMXBokBMaYxp673KWFrNswUozTt6mynOk9QGq/h6tUrmJmZRkM6g+bWdi+0mJNHYyzpe17a+WHXqckJq1WxsbGOqalJY8JMJkMpWjE7Vg6X32V8cOm58/r7H2d4YJjTJm3UajqxC0GIzBJCLJEi87RiemoCb59/GfFoAEPHBtDS3Eymk1qVKnaSUzNAdk4Gku1p95ieTIUImaYxncaZM2fozXdjbn4BoxNTWN3YQnN7J/qPHSdfRlEir+8HlLcYyrGSXzQxpvIrFvP4/vf/Cn/0R3+Ey5cv21z+4MAA0g0NTqIzgqS/wu4f1EdwyOQfd3igJKdazTUjT0xSSYo5dSv1mWlMYWV5gU7NNVPnPT1dSEQjZAZNTSqmY0hDx1oOmVaIUljjmyYXmV57a7Mx98LyKkbHpzE9v4REKovWjh5UA2GEIlFbRyoHyRd6QvPieaIFKZcuX8KFCxco0cfx+muvYGxshGVsQHtbK82HIM0SmhSaOqUtQQVgdXOzUl6CH3N4cJjzSGP5DegaUVIoTGxtbsJubg+vvfE6dvd20N3ZgbbmrCcxxTROgvrMJBBD6K7PqmKa/UrZsIPSMtPcjqm5JVwdmcDmbhHtPf3IUsVr2Z0l5MVWGSxN/pNKT9ORiscTuHTpKubn51Eu7eHC+Vdx4a3XsLe7w+dZZJoo2RmlVGPnYa+wzlHHnMasSvNjCg+W5CT4ksUxk+ScGIPXkmByOMJRTM/OYWp6EtnGNAZ6JT1pd0pC+cxpzS4QE/jN77hBz0JKj6q3Uqmis7sf7R3dZLBFXLpyDZs7e+jrH6T0a0etSrOA0eREuRIRFZfSU6v1w+GYDUtdv34VyWQQfT3N2Fqfx5uvv0yH6yqLH0LvYD8y2UbUKiXWRnmHrTQmgQUH5XsnvPuTjwY8cMx52CLuRMxQq2qRCBCJxekcNdIzzuPypYvYWFtGb1cbeujkyL47ZEzjwiNpeam5R1LxoYiZBqVKDdlsExpSKSwvLWF6bg5lMu4A7ccMmX+fUjJE7vSZ01K3cSvasOE4yxfE7OwktneW8dQTZ3D2VB+qxR3Mz8zgtddew/LKCpqyWTSlU4jRu69V2NnkMPFcab0fHFThIwgPHnMa9zjp6ViK/zVdaYxURpi2oGaQ5mZncO3KZcQjIUosSs94lFKJDS8JWic9/TTszG45O1aP9/fduSRzp2cnXh8dx/jYBKLRGI4fP850Y8agTiq7lLSKSgtWtHo/xrIsLS3irbfeYPwivvDph3DuRDdi+3vYXJnFm6++govn30IylsSxgeNoaMjQhg66iQZz2A5Kd5B+PVo/8M4/avAAMqegvnkOQRJHtmAimUClVMTI1StYW1kyJ6Szg8xFTz0aqNI+FRfKHNAbmz6KyYXetfdTyFq1QsYKmA2aL5Qxcn0ccwsLNn3a399nTKghIovBcOZ4BWsolAqIU5pHo3FMT89genIMyXAZT57pxWPHO9DZGAIKOazML9MWvYKFhQ2aEQNk0DRytJ3No9c/lsKV6SY1904Orj9C8AAz5zvBGIPcpHHKKL30BToiS4vL6OzqxdCxYUSpfmNk0IimNsV1bHCTlJ6EdOgY089D06C1WgXVctHeW+ru6kBuj3bk1Yso5PcwdPwEWtu7zD6VOSCO0rgqrU5GFlMFkCKzbW3tYmJ0hPmXcawjjbZkFf1NETw23IvGCLBI5p0cn8T0zByidKT6+voQpq2szqZhKGNS2i5+yVzpBOoQ3ulHDB5A5nyPlvCGcSrlkjkr6xubuHx1hM5JEKdPP4LutjYES9tgkzOYGDJsRzML2MI2f27XHproIkNQCgbDAVRrZNBkGJlUiNJuCmNj18lIGQyffhjxVKP3+geZ05PMSlOzQ1Gq/lw+h2uXLmOdNmtLKoqe1iSZsoyO1D5OdKYx2JZFYXcbFy5fxesX3kaxSCbW+tXmFnP0zOnSCAFBFHBUODzTwfqbu/pIwAMqOQliAL9t6tDjC5s63N3L4dLVUczMLqG1tR2DXa2I7+8iAr2foQiapxGT1oMYU88EvgQU0ykGpSMZtKkxSSkMzC4sY2J+DcnGVvT0DZhZYcKY4X1jUMxape2YTKawvbGFGdqscTJ8T2sj2tJhRMubCBU30dncgPb2Zmzs7WBBjtfUtHn6jc2t1ARJBGhPq6+wcJauwMvB/t9w+EjAg8ucN20GqTgNyOzTMYog3ZjF5PQs3rpwAY0NMZwe7EBXiqFKu/wnaelJTJOUXgp2cpi2pKBzvqVSeULpLIenua0Da1s5vHbhGgrlAAZpNrS3tzNnjX9KaiqO0pbEraGpqRlROm3XLl6i1J3BQHcLetsziKJoS/i0sKShKYPu/i4y+T4W5+bx9tuXMTMzj2NDx9Hf20c7umRl0Ry961RMXzdULOVndz468AAzp0BNUY/87zGExgmjdFi2d/boXV+31e7DnRkMtNBr3y8qIPGo1LyRMXV+MIfuSVg5Rlq3EdZOJHR0Fle2MD4xbU7P8RPDlHJRz3tXPKKZBkpTQ0thbG1uYeTKZRRz2+jtyCJLEyFABt2no1Yu5cioZPTudpoOcexobn5yEhNjk0jSbOjuHTDLRUNZzlHygPl8wpwPCEjCuWlEMhRba3z0OubpKQ910D7sTiMeoqrm431KMj1naMYS1oOu9VCq36l/k5xkIi0gETNkqXL398O4OjKKtfVNDA0Nobe3y2aItLhD06rOSlRKAUQjcdqeRYxcu4aVJdqemSi6WuNIhEq0fsuUrGR6xk3Qvh3o6UBzJom11SVcGxnHyPgCktk2DAwes6lWOWliUJXD3CR1BMvnowMfSeYUY7oFGEChUKT0GcfM1Cg6s3GcO96DVIyqX0M/8jLUtGaoCm5sWjGkJKaxJXGfV57TwyiBQASpZCOWFldxfXSC6YXQ1dONLFW4fBfFNcZRfOaXoO0YiSUwS6doYnwc6WQUw33taIxTelbIoGRMCk6E99kBqjl0szP10U7OF/IYn1vEldFRxOJhDAz0ISYJbVJcBXFlFdxYgwcZPpqS05Miaqoo1a/mskevX6UTU8HDp/qoMqP2XpFWImlA3gvqwWFcH3TmkIwpe9L4IYxqlemHE6jwOD2/iPWtHbT39KJvgNItxDxqTN+3bb0UNHif28tjdmYWO5sbaG1MoaNFtiftZIWwTlWj+VBFrZxHUzqGjs4WbBd2Mb8wi5HRy5S+e+jo7kXIxlel4mUzEz3786MCH0nmFEh6Sqio4VZXV3D58ttm5w10t5m61ILjiNltYgbHOGxhRb0BmIhQidlRIYP80Ympheyd91g8iZWtLZy/chX74RiOnzqLhlQGVU1FBiNeeCetIzYtGcT84jKuXxuxCYHezjYkqNPDQZoDNsxVsfvRMMtWy6OhIYpWevI7exu4dvW6zfFrZOD48VNIJVI2j68ZMpkxHyHe/Ogyp0BjnfLa9UbmVTohs1Nj6GhO4+Rgj62UR7VkUtBnTuf8OBl3pJWNMXUk2n2pUEpDXof4LJqI0aUBJheWsLy5i57eY1S9Q+bVu1EBhdfCZ3ruLFNDYwa7lJ7Xrl5BYXcTbdkUMY5QLUeJWbBXR/QiHzmfvpQWkVSQbmxAX28P0yljmZ1Ny/hq7BxDg8OIx8mgDC4GrS/2gw4fWeYUn4kRohFKOF5cvnQJYyNX0NXSiP7OVjREgogyjDEnmUfSTMypxrUGPmhlBRCjuCsH7qH9p2MSi0UQb0xjfm2dzsskUg1NOEGplkw2WNruVRFJced6JZNkRHruU1NTWJidpMceoeeeRjqu6dW8OUeuXDILtBCa2ZSLtJUj6OvuoU+2j6WFFUyNz7BcUfT2DSFKBt2X5FTFLRevkz3A4KzojyBI8GhjhEqlQkYIYZBebpINuLOVo3NCpV6lSt73PHEbh/HxVkCNL3NAHrOclwKyyTDt2WPoJPNfOv86rl+9bExlTGJMwxhU61LtJar7jq4enHnoHBBLYmp5DTtFSsmIFpHIhVL6BHPFKXF5r4H5JEo7aAtX8LWnHsJXHjuJaH4DP/qL7+KnP/lr5HN0qELaaFcdzYvuHR9U+EirdYFsTzGpnKLxkasIlgp46MQxtNLuDNqQjzhIDOTCq0nt9EY+tQA+CtT0RBNxPFAShshoG1TrY+NTCEfjODZ8guqYtifLYENbFl4H2p7RKPb2dmhuXKL0nGB53JRmPJincyS1rnLJjmQEy6ZqNnKITlaCTNycbaYXX8Hs0gam5lcQiMTRTakaoaZQkWzb8QccPrKSU+pNqPFGTWVG6CVH4gnky1UUyrJFKaVcQAsvqGe9mwNjiMnkUfvIGLb+k5K0m173yYEuBMp7ePP1lzA6eoXBS0T3HpNQdqfUu+b/B4eGcPz0Q1jfLePK5CJW8hXUYinarzIxbtY0ehmviliwhAGaAV/54qM4e7IN8zMX8Bf/+d/irddeoElKk0AGKKWtq+DB4YGDjyxz+iCJJVUnCZZqzGJlY8feByprtY+kphjMpN/NmlANLAb0GZHXCutzsB1dvH06LTE6MueGO/DwyU4Uc2uYm5tAubRrw0LywKWuNXukDWsrlTIy2SyeeOrT6Dt+Fgs7+5har2B7n85VkFYnO41ZG8pEHchnVjJ6iHZprbSEjkwez36mA0+cimNn8U381Z/8r7j21uvmpGl/fEVnjvb/QYQ7Zs7DMcX7D/yySXpqjaT2kd8rVbC2vYOKbDsypxb0OvvxhkZ8R3vyhsJqgNyPo+SNsWuI8Bgu59CZCeLMcBsZcAdvvfUa5hdnafMyGB0nLXY2YDx1DEnRs7Q7zz76FBa2K7gwuUrpuY9yOI4Sw1SJzgKVJA2hJoYNau+nPWa7iUhtASe7y/iVJ5txlo789JVf4E/++N9gemLMthwvUTq/sx4PDtwRc/qN7waBpa5ccrZpgIhygLq+Cd5DytksEaWjUF/ekHesV4iDkQjCMXnL3msQB53LL8+7lMkkptA790GnlIYBDYbXikgEyuhtzyLTmMD4+HWMaBe7/K7Yi+FcPHUIQ/40SdDS3oX9cBqr21WU9lOoBJKo1jRm6comCep3H62M0naNGnKKYAfBwiIe6m/A1z93HIOtQVy/8HM89+f/CSvzs0jFWU9vgN6mUolKw8f7He6YOcUE2nJFXnGhUECVx6PwfmS492QSI0SiEaTSKeOPrZ1d5IoamWSrH3QSH28DLK6d8I8MymsxVF9vP47Rntze2calyxexvLJsdim7CsO65Xf6woemWBOpFIZPnERLSyt2tnPY2ZX6p7O2z86j4FYmx5o2Q0XUO/dS3eH9MBLBJFI0A073d+Arnz2DnqYAfvr9/4S/+JM/xtbqKp0oNwmgoh4U14MbLu87+MDMKVWpd8X1RYssbacUiSzV6UskjRnaSMgR1D0PSbKDB/cQ/A4k71hl1XKzVTbaDhnUNubywjngVb1UvAGsXh6q+A788JJKkk6wF+KODQxQtQaxvLSIfC7HvFQOLyjD2Xw+mSzOcg0NDKKzvZNe+wrGR5dRLEQZNmHTo35GothhXqKbJgFC9N7DiJJ3s5EqHjvehkeONSGcX8OrP/0Jzr/yqvG1dj1xNqiYm3mzIL4iuJ/hAzGnGlybVI2NjeG5557DSy+9hIWFBW8/ILc2USpE6rRcqbqhFCMLs6PYMMY0A/+Q+IeEv7vgTA/NaUfR2Nho04cyP9S53gl+WW4O/tObhmLxrV46pYrv7e7AYG831sicM1NTqNDW9SWYBSZniAQV2qKZpiwef+wJZDLtmJ3dwsYWmYhqPhCKM6TUu8vTqXn/jKkxmbC0wn4JUdqhLfEqvvTESXz5ybPYW1nAD//yL3D1Es0KvRlAB0wr6Z10d6n4cG8of+dwW+OczvN1W2HrA1Z//dd/jX/9r/81vve97+EXL7yAixcv2mYGsXgUDXQ+IpE4GSFGw1wjHFpqRiZlfMcwAkduCU93p55kdwbKQ6jxPhFfzDg7M0Vp8hJaUhF86qEhNCfpqWhDgyMi5MYy+M/c8chT/0JHy4/J8d9+KIpANIXFpTVMTkyhKduGk6cfRiKpL3lQgkmKKh7/8dS2wdne3MT4yDXsbqzbQpC2ZtIvyLC0YW0llLjay09U89/fV556bvs+MUxjKo3GhgYszi9ibHICyeYs+ocGEdW+pQwX9jql4roTd/Su7iu4LcnpM1WFElGSKE6D23c61qgqn3/+x/h/fuf/jv/2v/0D/It/8c/x87/5OTbWd9CQzNj8b40EFYNLnTmWcU6BwJc6dxOUl8lsJu0zq3Lb3d3FLlWtSXGV54OCH9U7+peyCTU92pKMYmtlhU7RVWzt7qDMANImqqt+6jhSt/IjOzo70NrZhXnSa3RhA7v7MRTYsen6WHg1lQbmbeWR0KOXU8+SyVTxtHvDlXWc6Kzhm59tRWdyDd//3v+G11/9MRoSAcQ1arDvhrRUWr+89yt8oBkis+Ho9YpBZ2fnqNLn0dmphbDdyGYiZMhZvP3263jpxV/gysVrvN4kc4bR2tKIhjgJXiqSodUorv86JMkcvQ3eU5jdBvgdSvblzNQk3nj5RaQjwKfODaMjm7TFH5Je7w5+QW7SlK7gdeWTbJKqJrOE9VJbGeMTs9grVHHs+Fn0Dx4nxWn/kX6a73fz5tRElGbC2dlpc6CiZKJhOjjZJNOp5dxcO/P3alKHAh3J3SSeewmuRIlbQWtrAwrlAkZmZrHFjtjX20f6t7EzaK7f8wsU16eP/b8R7lIjfEC4beY06UPi6igHQ1sFvv7667SxuvDr3/oqnv7cObS1xcmMVUrTWVy++DrefO0FXLrwKlYW55Ch46TtsfXqbkWePevvOyZOynlEEN3c2R3RRekJZWdOUc29/vILSEfJnA8fR0cTmVPbwLxn+n4D1TfUu4M6WIVBo1SvCMVwfWwCCyub6Bo4hcGTZ21XkopUe0Baw2kdDfWoo2tHkWuXL1G87uF4TzPasxHak3sgpTz5qYLeHH26SRVWyzQF2Am0wc308jam51YQjyUwOHgSiVQLqjWqdolrgRfP/X8veP8Qdxs+MHMK1OByjCbZ6KPXrqCFjf34o8M4c6obDz90DOfODqG7LYNAJYfV+Slcv3iBBvrbtMVWEE2kkco0szFDNNi1gII9mtLDSMbkJSlMkhJNld0MboFe1mhEdQBtkWjMKckp5pTkvAPmrL9zkAQT09SjpFNZW4JPLWBsZhltvZqqfBhhMqHUgtt12alWt69SBHs7O7h+5RKq+U2cGmhFT3McUeTInJ7daRncDPSEqLqShmoemVDpjF4rDts+T4uLa2hq60N7z7CtAQjSb1DH8KMfTdur2UED6OjX9mjIewkfSK2rwe375zzXcFKONtwVqqNqOYeTQ11Ip4JI0cbRezDHB/txknhcaxGpzseuX8frb17A6xevY2F1Gw0Njejq6mDjhGynYlHWH8x3ul3y4l0Icgt0qmfOA8l5wJwpjzl9wt8M/GfvDKPsfawHyTgaLeZta2e6sZklJBpb8dAjj9mUpcZd3Qtqfl21CDmMwt4e7dNL2Fqew2BnGn1tCcSRN29cktOV4cbcfPDvS0tomWCQ2itpG9+urOxiZGIee+UgWruPIdOit0QPU7OYN0324Gnd85sGvCfgccHtg4gqCdpAz/DkqVNoa23D3PQc5qbmkYokEdVKsu1NpAMlnOpuwteffgz/5B/8F/gHv/dtnBtqx+7SGH74vf+Af/Uv/t/4wV9+F+XCjr0PHqFXqcYzspB6ZpuplLq4Ee8YlEZ9On669fe8xqi/9R5gJo+QNnUqEUFXZwuy6QS21pbtbcooO6FmbQz8jsMKVmji6PtKXd29yJWpjeZXsLmnV4FpH4oACvuejHFYQHv7k5K2WsrZiMSjJ7rQmgph9NJ5TI1eRCQkSU1ZTDo7WiqShwa84UtNQ+avVVJ270jAewofSHIKfPUuxyiVTNCeXKRqv4xUPIJjvV1Ihekd7pcR04IIEitMFZKIhHGsrwuPP0z7q7cVha0lEusKLr39hn1VLZlK2EyJ7CU1WJANqTz8n0hzCB7hRKejD47ATSVntHboEFWKnuQk+gxvSfsN4GVgefj33h3cBIO0K5kwROdwaw/XJ2exupnD8IkzGBwaNqfJpSedYCfujHVeJB2v0PQJ1Qo4fawb7Y10lmpF5+yQFjeHuvsuOcdHEiChIGK0f3OlKkZGp3jcx9DwaWSaW82ccPRx+RvoYMnpxEeTDg51MDg4uWfgdeEPBmZzkun0If7HHnsU7e0d9E5nsDC7imQwgeR+GGn2zjRtplSwhEQwjwbisdYofvPzZ/Df/O4z+ObTpxApr+K57/07/Hf/r/8H/vLP/xT5vV1zEPQBf9FOr8Fq2MlRzccPCjemI9S9m9z3pcrBvfcHBddiJ3sXiAymt0GaG6LY3VzG/OyE+8qcmOyIZKKcq9EOjcaQbe1APN2M1d0KtmTlRFNkMNohxvTvVQa/Dp6jJYcrSNQOJbRjnqQPcKKnFVOXL+CVn/8Yu1trCJPjtW/pYV399I+W7QhauX85cEfM6YNWmg/Qrhw+cRzLq+u4dOU6Cjka8eV9hKiuwjW99logyn5i4xQ2UN5YwFB7Gn//976F//rv/ia+8NRZ7KzP4Q//9f8P//P/9P/FtauXsZfbQb6wxxw8Ah7grYMkr43FSgJLjTG+yTZriHdhypvi+4M1G4PaG5TUGlV63S2ZBPq62xAJVLCxuoDdnU12aoZUr/MkkkYpZbtoNihMrzqhD8YijPXtHApFpsVO6sLdyBgq183roP+iW0iLRGi3djbFcZbmVDywh4tvvGxarlwueiH9+PWgvPz86p/x3gGD3hjn7sIHZk7X6KwaVYN2FdYUXO/AAMI0wiem5ylB51h09nhlwecBbSO4L0KR7OzV2qtd3wFqTUXxq198Ev/kH/4X+PYzTyFUXMcPvvsf8D/+9/8cb772MqWnbFvngDnp4eOtkcYvJ09YTqEa2x64AAZ+au+FtwpqvH1U6WgV2LkS0RCaMw2kQQnLS/PYoR2uzWbZW1xw1s1fbyAGzWSbkWrMIFcsYyeXtxklpal6vD8cLasmPvUtkVC1hJZUGI+c6kVPWwoTtDu1P32ZbSJwadfj+4HPnPcWPjBzilEkAaTa9ZZjOt1Ix+gMEg1ZzK9sYH2nAEQS7LtkUKklcwJUKR1pS9bIdJUairvbyK0tgo4p/s6vPYv/69/7bQx3pHH+hZ/g3/yP/xI/e/55VKp61SLi2UhHi/x+WkZSU8TXiqml5SVK411kMm6KzzqNxde/u0hwJqV0ze5kJ0xnGtHIPPURL20k68yUQyaw7sbwNarYnr5eDNEu1Ruja2trtl7B2fcKeKtlZLuQMEINztGyQLBasL2ZzpzoIe138TcvPI/RiXF7O/V+hQ/OnB7ISFcPlWrq6O7B4PGT9DKLtkPFBlV7NRSn9RWl4tDnqawZTErUPImo98eTITpNlV0kqzv4/CND+Ie/+w18+swA1mZH8cd/+L/iu3/yv2OTnq68UH052Nic+Rq6YrwrqGGFWtanb7driCWmVzbINE6l3WqD3w4oT7IFHTtlof1C9bU5MdrO7q51MmNNcZyyFyPxp9VD2nQh29yCJO14LevLFYpGt9sppoI6GvEfO7bRiY5fLFjEycEWHO9rwcLUKN589WVsrK8xX//1ZddlrGz3Adwxc6oibiFDAK1tHTh99iHUKCVHJqaxvLGL/UgKJUlJayyiSVDG0Z5DtMP0FTVtvxIP7ZNJa2gIV/D046fwB//nv4WnHhrCwuQ1/Mkf/1v85Z/9iXnW6UTc5q5ttw5rWI+UN6GoGFHSS2OoCqZzzUxpW+4oJYbPuPcELG3Wm1ZETHZkImlb4xQKeZbl5s2v9841g9TU0oJUpgm7hQp2CuyQ+oiB2Z3vB6qLEaUOWQCqb9E5SJu/n1rp9EArKtvLuPT6y1hfXDIJq331D/O4efl+2XBXmNPkF/+0Wqm7pxvtnZ2YW1zGFKVnvhJEsRpmB5b1o9E3j2AkljYIkNGuu/JgJcuieiEst4Y+evS//xtfxFc/dxrILeLHf/mn+Pf/27/B/NS0qSpIxbucDUjfd4CTjI4p8/kcFhcWsLeXQzwmyak1k3x4k3h3Bn7DOumpPLTWtTHbaFtpa/eRoj72WtcpdK6xTKsNGTSWakQwmsBOqYadMuknzXNLzHkIoo3Rmb1De4zWaPOGqjk0YBtPDrXiqcEOrIxcwoWXX0SRtm0krNeSWWYtLrn7RPlA8IGZs774IoOkQTwew4njQzg+dMxW/oyMTmJzu0Bp0GCLIeSLWGvZsIWYyzGYcZYhTQRK0Rg9zBj2MNSVwN/97S/i2U8fx/biJJ773nfxl9/7c+xt7zIc+dO+zvbeoHIJc/k81mUa8JdIpowhtCLI+sldB9WFpCVqlECSOt2QMltTnxwsFHLMn4+90ArueFXUCCKebEAk3oC9cgDbxDw7dtnod2uFtaREZxudkENF1Iolsnlyfxcn2mJ4fKAF8eIWrpx/zcZ/2dcZReyg2JbCYfk+JLhzycl6mNQidSuVio15Hj9xHHGqscXlFWxu7SBMKaDvA8kbda2gapMa2gHY4JAgImigRo9ee2jSc2+KF/C73/oCfvsbX0awlMNPn/s+fvzccyiXyPQRrfCpmQ1njXETMIeNnnGZ9qb2bZdNp/d2ND5rklUdxeLePP4HB69OJI7KkKA5Eo2Gze4saWGGzBuvzGJgladMm1ov3mnQPMIORI2OApmyVCVtNdJgDHc75VQcOYSis1vzKbpGqrvob0+iqyWGxbkxzExPoKCVYiyvBhGc5PTa40OEO2bOA2Bd9DZjujGNEydOoJde5+7eHtY2NlAsU1Wz6o5I9fBuBKB3TqaJ8HGoWkZHtgHf+soX8bUvfRa1wja+/70/xfM/+TFq9PZtqxcyvJrspvYjH0jiaHH0FrEx22TfybRhMDW0opgkVwp3B5SSGN+VR+/Oh5Gkatdxe2sLBUpxH/wwvlqvslxaJ5ug9NRbBHu5HI+ehvjARVTKjKw/SUeSrK0rg97BZuzkVjBy/RKl+Q47j0ZRXJluQslfOtwxc1q78ii6+YtB9IVdfWZam1Vt08aTxNQqGUmIQ3iv6vMZnahYKIrGeBqhyj7a0il889nP4exwN8auvYnnf/R/YHL8OiugMUWtZif5RVlfuhDFfHLWtHZ0bX0d68QWOhsd7R1sBDK2MYZXJif+PbwzcKkcpqOx2mQ8YU5YjvQo0jGSs2bgZS/nyTxmlkkbQMTp4evVXjGzNvIyQesHvi2or5frBDX+Uo1BdHSlUClp57rz9s1Q65+OdB8op7sNd8yc9SAJVSyU2PMT6Ozuxfr2Hs6/fQUbW7sH42muD1s/PsCbAxurFkagSu+av0C5gObGCL719c/hs0+dxggJ+h//w7+1mQ72d2auNZJsgEOeMFUpLFKVriwv2adZomGtGaddS5NAW2iznQgig9+AdwNcWvqp84gdYqx/NBK15YEyLyxMXeV921j3NKKQakjaB7bkZLoRDqZm9XuvMipBHwWuHIco5tcIQoV1L2KwtwkDvc1YmL6O86+9gtzuDjsN6cby3Q+y864xpyrjhmqiyDY1oaunD/vhBMbm1zC/voeKXnW1+Qo1FaWZoUV0eAT8m0FzfOQkaR/3yP42zp5owa8++ziaElW8+vMf4Wc/+SubJ5bUUZtrPNVUpDGectOquDJWl5ZQIvGb42GktcOclUC5KISHalMV6sY2vl2gFJYU0giEyq5vuzNL6OOxWhaoMVdlLkFphVBGlPp2ynNNGGgNayQUsQkOF9h16PcGpeCjwD9X3dy5e9WDpkOwitZUGMNdWdryWxi9/CYWZiZQsqEu2eP1hBD45/X37i2IPHcBnDQUQWvkkBSN+TNnH0Jn/wAWNncxK+YMxFjdKKr7Gowng5JWhoxphPDtA0Od835Ae6/rnRc6P8E8IvTgUVjBQ0OtePbpczTud3Dp/Es06LUddcLSLlXY89UA9nPJ6eWxualJROloDXU2oyURQrBapANLblYAk1ie5BLhvesDvA3wB2IcalWnXrEgM5JBjQG9NG2HZAZyL9eRiXmU1NLzRJQ2Z4xqvVjG7vaObV+j2TgX0sHRUik3NaXPhN65kdUN8AcDGmh3GKYkDtIUSoeBvqYUOlIRFDaWkNteRyyqsWFGP5LTDagsDA5O7gmwc7tGuXP0is4TyQC9ptDQ3Ia9ahCTSxu0PUusiz/WKQZi0zGsrFQpOaE8RR91n0qZ6bFx97XJKyWnRvxqeRK1jCfODhouzlzHD/7ye7hy6SLDOodCzo558ExDanR1dY2NvG2ftx7s7kAqzDA0E6TeDspuR/+cyOgH53Zd9+w9kQ1m6N9QQupgogrTUPlYNstLP0kpQy/8AXgMRtBdZ7O7IP7x9pEl4NHGlFn3hmANg20ZDLSnsUzVPnrlAhMvu7WeRhvRX2Xzj0TWwy/vvUZX+7sA6kPOJlK3i6Ax04begWH7HMoaJVeRTCKZYoS1GNatrYHqwe+LNuUmNFZ2g/S2izDvRHg8OdCLZ57+DJqSMVx44xW8ff512pS7TLyOqxhWQzCr6xtYZxni8QgyaW3RwjAkvpXBCF5XCovrHeu54JbBIrtTgtMpjtBm4xIsuSNJimkUSs9c41tIBlRHMy0g0ureXQArD5kwFiijLRNDe5ZSepc0WtZ34TWXr6xZGk+qH+DdKsAtwl2UnG5ZmiogWaiFw7bNSmsbtrd3bWbGVVEM6ljOxdM9r/J2dnju0DGnQyYvAtF73S/lMdTbiicfPoH98i7efuMlLMyOI0ZVJcaz76/zVyyWsExnSE5Rc3MT4kl9rEBDW3pFt8qylJlyhUdPGtytn1XMMb4kqRwj/Vn7+o2sW0YDD73OoE7u9g1lVVgP/ZTOzX+WzO2h5UF6VvLI0sTpa2lEMlTF9OhlTI5dM7tTIa1MlreHRiPFd2nca7xrkvMQ2OxanEEbqakpYx6nxhhzek/cmsjJEtlChtZSPt4MbrwftLlyrY9soxR8/KFhdGWTuPD6C7hICSqJoMFmgfLZ3dnB/OwMG76Cnq4ONCQTKiGdEdmblJ72XSE2lGXzXuW4FaiLL6ljpyIxT8hw1rGY+yF6wIZwjOx1cIIYlE1kjSSwIHVR7gyUGO1h0oQ+kX3asKUhjq3lRWwQ9ZVkiQK/rRTcgVe3XxLcfeaUerK2DiCpF6ySSeQ1dbi15WSV6GKVFHoN977F8MML+Z8ZaMvBJG3H470deOREPyKlPVx+jc7R+HXmGzOCqgzrKytYXVhAmiq9nRJC78/sy0k5UFk++Nd191x2twFH4/tnztxx45juXI3O5/XcptveUUzp510X4u6By9yG4PaLe2hNx3CsuwmV4hYW52dsksDKyUI44SHwj788uEtqXeKeNfYoKadEDZBuSCPTmDGVup0roBoKo2LhPfoYsqGMoSlV6WXfCprDUasiv7uNBkrmzz72GIY72zFz7TIuv/Eavc5teqTySkPYXFvD5uoymlJxNOuDqtr1yhadMBmVQ3nb0eSWSa6Dstn920WvfqoPUTaj0rQhK2tf/vPCmcrmcxfnKAqkfcQj3qWBzo/izePfHP3wPFJhqN1ER300rJnap1Yp4Pr1q1hbX7OxVYW1PC3fG9O693iXJKeo7uOhNNTqn2ym0TYRyNH2QzhmwzxOcnqDLmK02wKFV8x9xKNhkK72dYzPPnoW0WoRV956A0vz88aYVTphizxfXZpHV2sj+jqztElJaqozG2O0/HkitHQPwRrEw9sHxfLKSe6y0orgYkT+HMO5BvBBp/V5uRTI0gxsb6Dyd+dQn4nqTKQZlIwG0dGaYbmqGB27bouibascdh4LXlfOXybcueTU7+CadTVJoCM97LAYVA5IzfbELJSrdObdYLy279uvkkFV73eRHu+JIpwco0oJyUgAQ31tlIxRTI2PYHZqwuzesbFRXH77LXt+rK8DqXiIxv6ejSeK6pKazJpHIoWIloxJrjrrz0m8m+Z9y+jnEbCFzpVKBfFEzBaAOAfSocKaOcSDymX9xi7Iklo7YGn46d0NVF6SjEyfN/bJoOl0Ak0taRTLBaySObWsT6Ap6TunwwdDo8NdAVbUSUHX8mKeMBkxHouzYYrY2dtz+7CHtcjX67UklOEtg5++UP8phehtBwMlOjvN6O9pwcryNN6+9Bq2d9ewsbmMubkxNKRC6OlusffIa2Xtqe7iOzia5hG4ya1bAquT0w8+lEplmxnS/Lo2UCD1vSc+KDx/KhvRPHfeczsT2+ldBCXoo5hgn45rDI00wbRqK08tpw3HnN3pgyvPLxPuHnMauAr4tNT6zmxTlr0/yN64hrXVNTZQxabwtBjjSN1vCzwiUewGgjWmU0FrWxr9gx20d3cwPnEZy0uTyOXWUChs8lkjOtub2FnYEJapOoaf+b0iurqOa/4yG3tzc8uYM5NpQlIjBmROU9V+ICuOkxiy0YV6LkbWJl9mHjhb5C6BX3+dBZFJZ5BOprGztYeJ8Qls0YE1Wlk5Pxy4i+OcRCOu5nZ0pJQkUTWVqd5YLtdQoPQQgXXf6m0/q/9totSSpIssAs0GlWg6FDA40EHswtb6Ei6cf4n4MiVPCSeGe9DYEKU3Si+U8U13e/FVAJemyuyf3yG6ZA9UcYkdcndPS9/2bVePWFRbR/p19/PV0TGClqZoGlg0DOs9JN41p9NL964h/4mOFZpHGgGJabcV2u27Wxu2ILpKASK0epjZo/CunL8MvMuS8xCk1tXrkw0paJMqXmrsnBB0q2wOhnKEtwr14VV02axsTku8hO62FjpHXdhcXsRr2n7xwhsI1Uroas4ipX0Fy27PIck0MYFDk1+GdxdcWd0OIAF2TO3yXEMizs4ak+RUvqrDYUnYHhZNEkur9GVTW92IfjnvOihRdYIg7eFQhWbPLnJ7G8y/xHbiIyuUoD53/969hbsrOT3kP+ttqo9sLG0sVSpWUCxUSHiyhwVhWG8GXWe39xN51OiucY1s7OHRUAD9Xa1kxACmRq9iY3kevWTYztYmVCk17UUv5uv6hUtF+btj3c/K9sF/dHMO/iMQof1bxOLKlu3u1t7RQ3NHr2wwpOggaeShvsmuD1zVKGmLBTfWmNQLfVLnng1aT2eHvHs76FXdjqSc1V7bBgUK6GmJoiG6j7WlOWxtrph2k5Y7msbNynBvUK17z0AqXCvVRdyqiK7XVOV9GmlEFqFmajRLo3u3A2JJDUd5Q1LVGqJ6wa6NXntDA0p6BTe3h24t9ujqQCIStY8DKHdj0IP8dHTXPt4JWGML2QO0sKVG5tzYKdCG26NjlkVzSys1iV6uU/kd1ktFqW95yrk9fR5Gu/jFnQnEtFxYP9YdgEVm6ibVlUsVsVABA50p9LaTdvlN2sgrfCbTzJkVHwbcM+b0uZ//rG6ynYLaXEHPrPk8xjxgUt27VfCbh2jJu2OYxM6mU0hGwojUyhjsbMGJgW7bAjvCvPTahzGmpJCyO8jSXdwpYx6AZ7KYxUHJU2SnLFBzaC8k91lDr+wHyHKx7I5VAvbinlbMVyqypWsU+BpuUqi7VD7ladm6vCU/Q5SemVQIrU1R2p4VVMpad0o170l4H1zNjqLAdR6mJYbnuX/tP/8gcA/Uugrq474Z27Z8LajFDCKKBi74TBtNmVqX4X9jvPfDo3naTasMjXrmkSQzhsp0kLqa7VuU+6U9eiVU6/qiGe03Y0Nyjh/1Hajy3XjvNlHjl5UK6848dzY2sEnvt6W5Ha2t7faMJWe4m2HNVqTndvcQC8cQi0mtOyZSwRjkBrxZGreOrixGFkKYNnEMRdJqZW0VJXYOPXPLBd14LaMciW9puMh2rnFRt3Kfokd2s/fcBvTr4twK3hPJqQq5f66AevORuVmhbezMaqynIrqPtwsHiai72nCVrpvTSfR3ZNDdksBwb7ttrR2zj5nqhbm7KB3fA5RDkdJPknNzcxMjo6N2ffzESfuyr+rrFLRfFtfoRgd23o3NLfuicDKZRJrovtF598tdl7srD2/IDNvd2bXvJ5VpXmjCwo0UONq5pYyMY0eH1nmIal/h9vaOrebX9pgqtxhN4B9vFe4Bc7IAKjTLK4mpqUvxzeE8sd+DNENBY7smg1uNc9hjbg0tmwO0cUAeE/EIvvLlp/F/+6d/gC9/9ikEq2UE5KVrwS/zdsW7WXo+SupJotzs2S0is5H6jifSWF7fwPzSEtKZLFo7WhGy15k9Ohno6M61Sl2souWFWuqXSsRsEYt0jRuUd13r7qDSclpM//Q6iT6bbd/nZLsVcwUKlSLz1VCSt/aV6BhZJTlElo6SUVoQuD42hn/x3/8L/Mv/4V9icmLCJhHMZFHjC28D7onkFNgKHB7VWNqGRquAHGOyklZITcuZe8KjivEBi+LVWSkqjyilTGdnOwYGetCYolqUig+JoI64FtCH+vMDOCS+UfuDAAukKdrdXBGb27sokwZtnR3ETquqGvIdoAzZkMp9h85cgc6cGDOV0D6lKojK/0ELdCMc1NCOko7KQ5+KkV2uYbnC7haqNoUp5lR59dKbQP/VVjo6VMeRxI3EojRfNjE3N4+f/Pgn+OlPnsf2xpY9Fx/cLnxAjngvUIFZEB4KpQLW19Zo0FeQzWbQoG9PasBXD6XzLHu/oh8UXFzr0WR8SYD9Qh6lnS3UKkXe08JjjQgwkGXlyvbOLB0DOFWlo6SEkxS3CgopLLMxSsyyQk7coyO0RjXNHoJ0Nm19Uq+f1IM6lxg2zGe7u9u2A4eGktpaskjFo3TgRDOnWu8MDohwcGV3+E9SM0zatLGMDdEEagXSjVrH0UR0EEg7+ch0rA0lFZUm600NpTUN2jpdpshrr7+OkZFrlj6508LcDtyTcU4h/7H3520aTMMqTSR0MhmnF1j21KaCsOld0A+AN8uTRGQj6xW6CCkiaeAkNR/xpzxvRIt2BBWHlPHw6LNbQOWjN/cCEfv+0Mz8Kj32GE6cOUu13mnsLtZ0ZoOLI49YJ7LNpycmMTc9iShFWGu20das6mU8vbP6gcrzPugEhc713moFEUlPo6M89RKfVry8iVZO0cXF8Y96ZGYHzQF9xlBOYITMubwwj1dfedk+Pek7Ra7eToM61PXN0bH8vQCKgyKJvUuvU4XQPLtenKqy0l4AD+8mkEBkSEkBSUxjVu+JawZriiN4T0ANx6YuFPexuKwdTwJo7+pFQ7bJNuRytl5d7mwIk9hsvNzOJnEDcUrRTCKEVFhbyPhf07hbJVY6hxLUgLTSMBsNMNqJekKO06QFj0E6k6aZvFIfUT6O5Ma4oq7/Kne1tIfN9WW89OILGLl2zRjTBwW/FbirktMfIlHvEGgwWRtXqTRROgJiTA0hCRREoRze7k9xfHLVnwv5M4mpDNzx6PMPkt+t/iQZWD95gIEYlpd3MDG1iXRjD/oHT9IRj1P1sQCS7QdlE7BkjFcp5bG5toRqfsc+Q9MYDSBccd8hoo718rjxp9i3inU/3ji4L3qR07Q7ir02rM5DKWivTqs+hu5cp0ZXHYk2fcxETMoxfCm/h+LeNno0xnx8AKVyEW++dQHzi0uMRpYXkyo5H5Wmocp0FO+a5FQZXV+y/mMF1kefttY3EQuH0ZhuMNtKmapUB6ziIt4GvF9477kfTJkegdvN791A6Yh8fnpqZu8/pePmVg7Xrk9ic3MN3V1d6OgcYFXDrLqo4+jjg2iiYpYLOawtz6OU20JbYxyZZAjBmoZzzBBQSAt/18AV1kOVivmZ2GTL8Jlm9MRAes4z+/ll8GPZJcNYm5Oh9XZCYW8LHa2NePyxs4hRY77+5pu4dm0EpWKJ6YnxlKjFfk+4a5JTYl1oHUw9hL2omM+jUiygIRGn55xSbdnTRGgZ+FK7Xm9k1FtHP0+/x90MvTD63fT5zdK9HVTjuQY8PBfDqYEkFcPYypWwsLaFlo5enDn3iE2d1ugc2bAQy8DAB0dJWzHnLp249cU5NNLeHO5uQjbBBqpq9w8NZqvciqM861H3bhXr4pGjeMf9/Hvm2DjmVMkshNrS0Lv2ftQRdlRKrh6iwT7yO7sIlPP0hjfR2xzHcFcKq1OXcPHl55FbX6KJ4nYF9NjFmN/lr3SOokpzR8BkvDNlxAJ6kkHjZMvarHV7C02NDWjONoCK3VB7FbltWmjPsJKM5aVwK6Cwfnj//HZQUH9+EyBhbg18+UEUg9Y0fMbaVYKYnF/C5NIKEs3N6B7oR4zOoFaca2cPuUSqs9tT35cgAayvbmB5dh5xPm8mYyZQYGpuscphcf2y+3g7oPA+2zl01wJ1G2cLWyj+s7Hog/vumR9TPx0laoSKUyyWsbqyzg5VRU8mgY5oHo/3xXC6rYbZSz/H2Nsv21f89AkfS99mC9WpGdng4MTg7klOpUt0n2gOYYcq/Y1XX8PKwix6O9vR3pR1hJbU3JcN5dC+g3MgQW+e9jtRYW8nfD3eSdx6ZJGNIYWaSJDKDpMAUeRL+5haWsPyzh4i6UZEadKQ0rS3ZHBqexrZj3pXvkJNKBrQEaKWmZqaxipts0SwhlSgiGh1x9S623FD+QmVt18H/97tIuOStdyP6YkhyYgmzdhXjHGslGJGH8WEYka95V9V6e2oX4Xpyc3d2cthcX7BtrrpTEfRnSjhM0NJfP5UBoHNCUxceBm7NHNkp1J42pu4rhMI62nr8I4lpw9MywFzq5DQawuLWFtcQDaVRHd7i32m2QZ66RDpvXJvQIXoH/0EbhUUXvFuF283n/cD9X5KAraqrbpiI6+vb2Nibh6IJ3D2sSfQ0097kwQyrWnOhyuLmK5aLSMU1pTlJsbHxmzK8MRAr72MF0Ge9CpZ2MNy61iPHxTq4ptdznrwUszqyqinrNOB9NQ1WZrPfFQ9bMyW9SqT22bJmNs720gnomhKhZEI7CFe3cRgWwzt6QiuXngdV946b3Vk0kzby/9d4K4xpyqkqslR3WDvuHr1Eh0i2h3dbejtarMBZj1XA7l+6Kr7IIMaT7XRz2qjf6zg9s4u1je3kEinMXjyNBr1nXM+tClcRWRo/cQTmtUqlgqYW5jD0vIC4rEAWlvoqSeDiIac2fNOuBt0c/R3PwcqvzqRCunqJBRj+ueuvofgztWmGolZWlrA5sYqYqxDtiGGRLiKhmgFx7oyONaRwtbSFN567UWsLy8iwsrbOiCm+m71uQtq3auQqRmqbTJhJBqi9FjB6toSWlq0hjHDwlMh1BhGA7Gkt4vHoh2gf+/BwIOhIF2TkDaMRubTR63GRkfJaMs4deoUBnq7sV+RahZ9WHc7ivTUHZQ2bnZlH3Mz05iYHEFDJozm9iTDFXiXipTPD5nD5XU38XBISzu1VLGzvYtioYAkNZ72HdCcuNt4jJxkEYQ8P0AxkZ5VsbI8j92tdTRlUmhqzSAco/1dLaG1qRFDA91ojAUxO3oNK3MzSESCSMUixthHaHlwfhfVuiSn1JNEvd59vnj5PLJNKZw5M4xUMsqya5sYglGFlbFe59An1IMEVnJRU61DhjP5GYtjanEZYxNTyDY24czph5DNNLHRpVGkOiwUj2oFea3szFQ1Gm7Tx1gDZMjT+sJvc5S08tW5TyefSneLUkqToM7CfMScVZVJRiBByxsPd0VxMtMHv6sY8rGe7dLxXV9bRDRSRUdbBjFK/aq8dj4MMK2+rnb097TRm1+len+Njt+EjeuKqevzcejgjiUn2d6OmoLTpvfakH9pcd6m4FoyafR3d4AdBAF9/5KMe2BrMipj2s8v1IPz8xtUjoqQzBci81HCLC0sYWl9Cx0dPRgaPI5UqpENHVMLMTyBDSGzRns3mRdOxp2dmsLs5Ji9w9PdlkRjgvdJL2MckUq01k/XfHTnmoYcU6OoMImnG0qXtZGEDIXtu0elsl5u031/yM/VVa6PUPet/kQ5evncHrbW1sic+2ijUNLr2rVKCfoAl9JubW9Cf187dneWceH8i+SRaZaBziA1KktgYQ7RleeuSU4mRxEdwgxF9quvvUR7ooozJwbRlk0iTNEeJ2Nq1Yu2MdQUl3Upy17HBwes6AJxjdfRrNFCEazsFDA2u4RKMIoTpx5CR3sPyiWGM9XMKGRMLfDQAgk1qO7ube9ganQMexvL6G6KoiNbQxzb9hlrU5cHYCm407sETvp5woJlqzD5ja0dBKNBdPZ0IJGk2iUTypH1jYuDn5qOKIWQSCSwODeHhdlJs5WbGmkvB7UeoGRSU6Wu7BfR0Zmm/5HC2uo4RkcvIZfbNbPGSGkdpQ5d8ncHxOlaYHrlymVcvHgB2XQSp4cHKAXYE/Pb9pqEBmBDLKllbYVg9l4tVfUHD0R2NS4bq1LB4uISrk3PIZTKkjnPIZttoTRiw9jrDpQQmoRgY8XpzWomRjTbWF2n1JwgfUrop9PQma4gGdhFiJLVpgYFpvbuATB/k+QUHNIEZXay7VweoWjc1p5qC3Uxrn2Pnm2n0hjKDqWmlKTVFz/0UYWJsVHkdjdpzkShz4pqJ2qZKaq3ZK2kbUtLAl2dcVRLa7h25bw5UBoVd+OpB6kTHbynWpeh6uPhfd+od6LXmofiPxKJYmN91Ta+13cWn3j4NAa6mlEtbCOuzyrvl5gZW0pmAA1pt9hYeKcq6sNEyp0y6RGMYCNfwfmrY5hZ2URrVz9aKDW1XtWcP5/gPMgpVIOKBvFYAhPjU7h44S3Eo/u0ybJIRknX4p5pFzeGekh3l6d/fYd4kK7OHXNqITSCWgxNTzoa4bXeXFDpVQm2HVHhZZsyFs/1Xj2d37VVLM5O03QroKMlhVScPFHNMVaZYaW6tctKGZl0CMcHOyhdY5iZGMf8/CytGqZrg/KkJcvEPw/fQ63z+RHwr+uPjG+FlVG/t7eHt986j/GRK+hpozMw1A9qBYSqBdvQVepcixssZn0HOWy3BwvkZpKoQTJYMEK1trqBa5OzCCUacOrco2jv6Lbnbh92kVk1dFpCn6PVK3cLc+zMb7xlG2d1sSO3tmT4TOEUR0ejsod3EeqSUy6SbpKCasOd7TxisRQymYztdSVBpJXsjlHUdj4jswZkYH1mZ4IO8PT4iEn/XtYjlYpSjZMptYM0NYt9xpzCKUbpOdjTjpODndjZXMLFt97E9vamyMT8pYEEh/V9h+T0JaVxnrq9jyyk3Vd+Puofe5PGq+ZnZvDSz3+G/NY6zhzrw6mBbkRp1EdkOJcLDCcj2iVrvVa9VT3Q8GgZ7l905VfPdhI/TOFIC7FQw9XxOcyvbKOrbxhnn/ocGtq7TKWr+Q/jeulIgVSDuHplxPayb86k8NDpYTQ3N1B6OEni0mdY+zHuXUWmXXeuAXQx5ypNjDU6c8lUGlkxJ4WOhpEcTygw/7HJZQtr1ZIYc2eHKn30GrY3Fsl4behqz1CaMjwZuuLVQUJJ/kaYEjRN6dyeTaNazOHq5Ut0IBf5nGG1UFnvXfkFY4bvKjkVSr3KR4tAUB8yI5bnvi21uDCHv3n+R5ifmsDJY/149PQJNMTDLBDFOZnSHCCzLy2lo+Cl6x3uQzjKIA7UuFRDpFGJan1heR1jM0uoRVI4fvYxNlAXnW16uZI4rLamz530UaPKO62ZnXb92jUbFxwe6EJnG6UmnSBSlRmRA2TnHbE11VQ+/e4utfTadiSaJIOyXdme2sghGqXhqM7nv0ojoJlhqwfUeSo1ROkETk1M4M03X0E4WMLpU/3INMRYbLa7VjexvW0BHo904skLNXsztr+r3Ta70E7KI5cuI7+zgxjNwjDjKH3VU/+9XA/BHokuN/vZfS+qMZoGaKuYoCp/7Rd/DRQ28OmHBnGqrxmB4jaC9NLNTnFi1kW+EW527z4ANb9jAbGhnAEfWWSrO6VKIIwieWlkcg7XpxaQaenC8KmzSDZmGJIawSTIIWNLEkljiPlm5ybty2mpaBlnBlvQmdpHYn8PCapBt224aOYR3P2rgzsh2mHNnFPK1gySociM22yuXTJdhKZJNK6P12pDBb9T6EhzQ8xapWESiNj+T1evXcbS7Cg6kmUcbwmgPUnmDlQQZceleCJD0vQxDNLJozSkFu1tiuNcfwax0grmxt7C6sIUamWNTjhGFup3oNYluu3ciMfCC0UfD22rFMl29iyJdM0jRyNJepubeOWFF7G1MkeJ2YNPPdSDhuAuVXqOFdAcOqMwM5tMoPRwH7CS5JX0OcxKF/75fYP6mdkhR0BmCY+qPx9KuNVqQaxu7eHa+DR28yWq9AGks82mJp2ioOpjQHVPoWaPYrEIdrY28NqrL2J25ip6OuLoaw2hobaJRjoR8SrtM8aXKlSndu3jl0lqkrQ7QF37z24FlZZXJ7al6qBFK5SBWNmtYGxlD7v7MaQp+WNkULGCQPmIObW5gzZaiIblkacxNj6GN954DSht4OHuGAYTeaRyK0iUcohUqDFlobDhtd5A6w+Uhjb7bYvXcKyxivbwLgL5ZfokZUpOOiiSzMwzZPzmusMRUDEMrUCHaJzMMzVQqVok0Ss2h/7zn/8Ub194nV5YF77w1MPoaKSXVyVzMnUNMpsJQL3mmNPJUNLpCN5vYOVief2jd0b0W4t/uqRnO7Owgom5JWTbuvGZp5/BwPBp5KnqS/TItVrHYzFjCMXXR1ZHx67ZUEoyUsFDx9vRkw0hQq0Tk/PIcG4+3WI58t918OoiVcgKasucLVoUa3uU2sms2c2pVFZvaTAk289z6CLhCCKssxZuTFwfwc//+seYnRrByYFWPHaiHS3RImLlXdajjAiZP8y0Q2RM9zKck57hWgXxcBXDXWkMtCQweeVNXLv0pr17FKakNunJ3xHJ6aPvEDmC3nifPZrej96ui8ZDmKc4/ulPf0ibcxonhgdw9uSwvVhmHO+pM9c47uiIovvvPN5Pv/py2plJfN3xJD/Vc4B2mva5H52ew8ZuEb3Dp9B/8gwiqQyfR005W8PqR2krptTYphZ5XLl8EYuzEzje147TA522XU4iGGJjMnwdzR0y37uGkrSetPVaxtqVTFGohtmp2HLBJNIprSJLsNHYljbtqvAa13T2sGZ+Lrz5Kl578XlKzW2cOdGHjrYsJS0dGvtJWjopKP7nDZev6KhBed6Mx6PIpKO2YdjU+DgKe27HaUl0FsrQ+OjWgBEYWQ6QhgfW1pbx0st/Qw9vHg89dAIPnTmBWJQqguJc76EIJC19ca6e4IN/dnjnfgcRnKACkzltAJqNOj07jyujE2ho7sC5J55GKtuBnFaDqWGDmrOVxKCaIlNq9wttZjZybQyXLlykhKT06GxCNlxBpLiDKFvGJIyBo4z7bznfPVAvI5MY1xBlapVrYcwtbmFlo4jGTCdS6WY+O7Q3Ncyjb8TLLNEmGS+//DJ++P2/BIpbeOap03jkRDeTLJumkF3qbBq/Lk40GahXCKhVtG9rUzM7AekyPTmF6akp89Ydnzj0U7gl8KNJEly5dAE/ff7HtKHC+Oxnn0JvbyfFfQ4hEtlsmiMxXCUfFFDZD1mCZ9IYPoF5rW0cy/TG5+YXsbqxh47eYQwcP4NoglKTjeq5TfZT2Io2zqWU1SrxS29dxsLkDHpbsjjd14HmWIDOQ9FGNVxeLo97Apas1yam2fgLhbCxV8TY1CJ2c/s4fupRdPcOoUrJou/k5/MFG2aKa1CeUu9v/uYX+Pf//t9hcvQahnta8ZmHj6EzE6ZKpmaQ6DNh5KStY8o650756kAmjaUa0NnbR+nZiJXFJWzRDg8EvTIpCIO+5wzRIbqGsQFZVmZleQWvvvQS8kxwuKcDZ4/1Ih2lSqrQFqXkdON0KoMXn5JGSRja/fsbjTo+PVV2u+/qoh2HpXVWt3MYm11Bnupw8PhZtLR1oUSGtfheAs6BEh+EEAvFsTgzh2sX3kS4smM2V1sjyJg7CIckbhnXBrj1Uwr+r/78Dn8+b6h07ESl/QhqkUYsb9KGnFsDwnEyZg8aGxugbev1NZRMNkv7M43l5VX82Z/8R/zJH//P2Ji7jIf6G/HVp06iP80K7iwiVNF0pW+8UUDpaB3AmQ/OqfSR90tlpOMxtLU2MWTFNHFOXyxmGbW8xHiNT24BJA1Z9rB2ICvj/Pk3cfniRXQ2ZfGFx8+hN5Ok17VNu4kh2Xvko9tqb6FdSZaoyErpAQJR2ErMilFN2XaAkTB2eHzr+hTGFtdw4tzjOPvI43QWNMyi+XCh6ixJaJRAiIywtbmDN17+BWbHzuNkXxIPDWfZOEXSiw0C2Wp6hUNSxqeSmsbHu0U1VkgMQ3OjzE5VQQrFagyrmwXsFkoYPNaP4WPdzDGPne0VLMxP4bVXX8O//3d/jP/PP//v8Jd/+sfA1gSePpXBb3/pNE62BxAvraEBJcSYrhxg16tVD54f0E8n9UhmrZaQScXQ1ZpBrbSLifERrK2vkAplxiZzMr3QP/2n//Q7DO3SEbiu78BOHffLcNaH6WdmZ/Dnf/ZnmJ0YxZc//Th+5VOPsHB5xGoFFk6SQ4XzwM4dUwpcf7pfQWW7eflcDfQ9d3Y8SkB9P/4vnn8Nk6sFfPFXfh2PfepzCEnUsL6aa9ZsmA2mC6gexZzX6AQ9/9z3sL83g2c/NYRzw82IUGqGAh5zsiO79aEEiQ876l/d+Y142+AiqT7VWgihaIpOXRUXr41jZmmV/S9ArbiI86+9hFdf/Bme/8lz+LP//Y/x4s+ew97aDPqbAvjyoz34ylND6G6gqq9uIxUoIEqpry50WCad+Hyg8hOtGl7BeS7pGWb+q9tFXJ9eRDkYx+lHnkCGdqimPjWnb2m+N5jlZOvy9B1JScy5mSl7ae3M8CDidMlCVOdiTEkMGz5S/q4MXgYihwr24IHPmFLlGjrKF2u4OjGHufUttPUOonfoBCIxfYCgShqJwdRQIixrTibTUNrm1rotJl5dnEFncwo97WlE9G5QVVtrH3Z+15XvLRjfW9vUUC3uoSGmb1/GkA7tY3l8Aq/++K/w4vf/BC89911MvP5TtEe38LUnuvG7XzmFv/PtJ/D1p0+hI03GZMdKBGUru7FsAxPyqoVfkzqUoGJYhzqv0DItoiObQGtjDJvri7Q7VxCJsjOHSTf28cD169cV25KwTMRc/o81EekEYtDJyTH8x//47+wLvc987nH8ztc+j+ZwAeHSJiUAmdNTY1q0YEcv7oMBKuvR8roakNU0BEJ6VgMRzG3k8L3nX8crV2bxxBe+gd/5vb+P5pZ21KplROk0+MJPAxaaJ4+Eo7hIM+gP/5f/gbbaRfzGM6fxpcd6qG0oNWt7zKHEHMjUTD+koRvGV8c2UGLyrFUuP+F6OOCKWwfHnKwZT+x795Tqu6UatvJVbFCKbudZ40iKvkUMoUgIDeTebDpuHxiLUDuGaVtGqBX0iremYg/eBjBVrqMPykhIQmjU4gioPtREgQTmtgL47s+v4PJKDV/+tb+DZ7/xG0hnmtnZbZyc7PduyJ+998PkNE735vk38PqrL6K7I4tHHxpCKqFFA3lQQ5id4IrHhvRo+WCi6q6j6hFkA9J6rAVtmrJAtT41t4rr47NobOrAOaqhdGMGBe9tQsUVOwv1zSHNWa+ureDll36G9fUZDA11oqu71TKqaWUv07PxNluV7tpM6PK/N2j8w5P9fS0GLpLR8miKVTDQEsHDfQ347MkmPDWUwBODUTzSHcJQYwlN2EBodx6BvWUy5y6lJR3fWonFZ5traI3oZv5Ycx1v5AFzKuuR9/hTyM6WDNozCeQ3VzA3OYLizoYxvjZku5GlCeJ2H5iNSY0qRq9fxZu0RRLhGh460YeeDrqa+zl2DDNfWUDGq4/6wMCNhda1u6e21OcQQSmi1e2La7t489J12mkVnHnoEfT39VOVBxGVM0SzxxGe9Khp9TiZulTC1QsXcOXtN5CKVDE82IZsAz1kmkHatMvmkb28DnO9l+DnoJoRJa611Y1eCSntICgNWF5DqLSKUJGMWFwhriFS3kKCjJwIaZtEOm41OW/ODFH/qrKu1v7vVQMvywPUwV5VKaM5nUAyso/cxiqKu1sIijZk8gPJKXa284MfszbboIZyMY/5uSkszk2gKRXBqaEeNFPcl/PqRbKz/GIpV1+8S+I+KD/JOlf6Q9mnc/54omttYzi3uoXJ+WUkGrM49/CjxpxSa84JYo1JC9FQU3H+GteLb52nRBhDd0sDjnc1oyFMiVCjrUknyMwgShU1htH/PX+WxR2inw7rZxJOq46IQZoj1gn1WZ4IwrSt5WPoMy+GrIvGr9XGbm2BsxtNpdehS9vHG+hY/1NY1luLhkQrfXczFo9ja3MLua0d9heZC+q47wLq+UokSCN/d2cdVy+eRyW/g3OnhzHY1W6rS+IsrV4n0NIB2U2qLuvgFelBAZFcKFIINYDsziXVNONVLJSwsZXD5NwKchWquhNn0ds/aA2nDVedIlOHFOHV6wMo7O7gjZd+gUtvvWbfMz/X34GOBGxkI0XpEzbmdLSjzGUnZymMbCrLTcAvZj1+YFBk1ZOMScVes6PwsO7O6zjMxhhK5SNTWxgrr6S/nGDXyYwEOpKx9NwivBsSXNpVNDWmbU1rpZQjr23ZoiJNXiind4CYS96jjdiT+UauXMKFN19GYyKC08NDaKadRSMUMabuqqTqqbp+le5nEGGcZHfnPgp8wrtG2tdkAqVahLbj2tomLl8bR2U/gpOnH0ZnWxf2SQNrRkkRLw2e2qqtjdVl0u0C1pbpoTclcLKrCa2RGhKVHGK2B5L23GSjKt5BEQ5OvGP99d0EtZGrq50xi4OlaoZivEM0J03RDBTPtbIJI1+CHpSTT/zTdwUX3l4BYdx4LIKGZNy+WLy5vWWLZpTOAXO69Pifmdn0o3oEJcDyyiIuXrqAQm4XvT2d6O3utLV39tqFttCmlxqQDcLwfu96MPB9yiom09rGCM0XNtjEzAIWVrbR3kvNcfwsgvTCtQmBNIUtM3TUI03Z4GTm8fFRXLrwJqVmFE89NICOdBix8h61TdW0jYacbLbEnAXFvbE8uhY6U+Huo9OMt4qSiKJJjUamcJ/SzVBqnvV3s4AeHsSrr88N6IXlPxvp0KKRUrGAvXzBti2XLjpgznpgFMNypYTlxSXMzswglUrh1MkTyDY2UGJo+EOGtIaP1DD1qJgPAhzKAr++h8j/3oWMlYWVdVwZm0YpEMOJs4+htbOPvVuahXrjMCghSJrVsLy6hrGxMZTyWzje14IBOo+JiOxQTe06meAW1PqgM78plJLo6IMLZXnwtP54Z3D7KUjKO3xn+T4IKKZQQlCrlErkq7W1NRRoRql0lMqOg43TmafrJTrRZ+4KmJ2extLCHFqbs+jp6rD5c3200xnGVP/WaxTcT0NHpXM76MX9kJD/DlBSwL6aRqyR+YpkwsnZBcwsr6P72HEcP/swgvGkPdMQihSzTCCTcKRJldLw8tXLePOtN5CIBnFmkLZmIw2eqt7RlrRUWEktSR+iI/XhvfrisIHecX7j8ZeOKv/N7t8GquxCz6/RTjGNmUZbtbW0tILdXM5oeig5FZpg/YAPNIS0vbGJa9eu0Fsv4OTQADpbs3SU9EKbApOijORndAh+f7hV/DDBL/0hSp5pDaNzc4JY38nh+tQcSrUwTpx+CF29vQjrY7NU3VLhGqaUj2Adlg6OZoMuXDiPNZpDAz3t6O9sRJROkN7hdqvpyfSkr3UKg/uBDh8OiAaiRSQaRSqRhD6prVEBx5Sifr3lSzR2E0dTAm5urGN1aQExupKaoE8n6J2yAeTBaxN7GVyannMK6kElMushRnHiy13rP2lADY351Q2Mz62ioaUNJyk1s9lmkcdq6kLq6FRdubiHy1fewpXLryIRzmG4rwGtmSDCwYK9suKG2bxYSuQA/Hz9FD8mQBLIRNFQXDIeJ530qjE7L81FQdAZ3E636Gj745DhyqUyFuYWsLK0iExD3L0dWGXvrxaZpiSAM+gd+CqJyCsn+m8VFf6Xj+x73vmN5REdqB1CQezQOL86PouF9R20dPZi4NgxxLQLBlW+EdanGQ16DXXu7EnTvIXlpXEMdicw1BtnoG1SpGTh7V10/hmSUvsaDZFAUFr207EOVb4b732k0ElOvWMWj8btNZANauv1tXVb2EwJemNwHWHfEJqbmaVnXsKx/m40NcQoNTX8ISdInC21TjAJUI+Co2m+P37YoLqoHO5IclFq0rFZ38TM4iqy7V149PGnkG1qNs9SZo22cFFYf/eLcrWCuYVZzM6OoakxgFMDGbQk9xGmOrcNq9SRxW0Me8SJlEQ11LlL8+MCRnH+EwslqdYT7Piar9frIHp2ZG5dXKy7WlC7srKKmalJJGIRnBoeQjoZAyoFavJ65nQNo4QOez9/9ecPzM+vi44kGO3OheU1TE7Nopkq/cTJM0jIEapoOZdTPf622dRH2Mrt4aVXXsb169fQ09aKvs522pokMJ0kTVCY2UCG17SlSVz9NJRk6LSQawcG/cig6vNeSJKQGcWhWg+rWSlSjJSRBjaHyJd4xlGe6glgamoK4xPj6GhrI+pdD9mWmv3wB5zFnB4cSM8HEFSVeiDFNES0TPUyNj5hK/9PHD+F9vZWI6StuBKJGFEMWmIv17ctx6ZmcPXaKGKMO9zfh3baphEmFyYzhqSixJjGpDKFfBQNvaOYV631cQFjMyOkgXwcDcrn83vY3dshKTSIZ08dOtporK6C1fU1uvR7SKVTSKWSLg0L5qUmkBOl1n2QiXpQMecj2pGEWpyfx+TkLOKJRgwODiKRStmmU/p0tgipMKZp6BRu7uwYY64ur6OnowvH+waQ1HvYWpnEpG1qV2GNTmJIH3V9I35MgFWV9BTo7Qn/yyLaHrJAW1/01eyTr3EIQRsi2d3bw8b2Jl38sKl1ai12cPZ+piV+tCR19OKprepF9YOAjjh1aJ0zSAYMYK9cw9LGHjbzRXT29qKzb5CmSgQVzYjQZrFNIsTQ3pDT6uoaZifGaKjvYqCtES2JIELlPdrotE/F0MzA/Sxb0o15GercR+Uv9MPe8NP9G/G+/3n1fRd0/6WNyFt6j5h10oIZLTXUowPJ6f9kMOpj7svLS2TOINqaM2iIR0lkLRFgRD4PEU1oWkw/owcFVGL1NqGru2kDMprWJu7HEljdK2N0ZpXnGXQPnkK6sdkcdC3P1rim3lvXiIZWE8hkmhufxOrsBPqaYhhqSyITLCBW26PNqQ+bapjeB515+dr8vVCrEtzKBPf8MHS9lvKf1OP9D+IMEU7Hm6FUt2xydmI52zQZ/UkQ21zBST2GY3UlPap0hjbW17G6topYPIL2tqzblIteaoRMqS1Ggmwh51zKMThE6806+uf3NUrie1KQKBKUtN0KGWVudRfXplcRSrWj59hpxBuajAlFI4WlADWW02vAldI+lufmUFxfwkBzFP1NYTQEc4jUcuzEWq8oR0dN4ejrpCOZ245aA+rf89GV7aOFqpN4wkd37d6zooO5775OHBJzkXf0KrVMJ3Vjz7t2iegFeu3rXtZ7QSEGEBdqcYflwuZhYM0L+0u8/HhC/lNyDwRYuY1h5B3SKiQxookktnbyGBmfRm4/guFTj9gHVfV5aptsMElGkpEpa3pZoRrA2LXrGL18GQ3hGoY6m9ESZ4/3VLoWd/g5HYKXhiQlmdQkqI52/6MKPg2OouMZN/rjT+2GQtryRuYSqeSah6QibbSGUx7o7t4u9gp5MmcQUe38akMdJLSvy73DASgBS+lBAjGDQ2POfUrBagjLq9uYnV9HItGK02efRHNLl/sahtR4XefTtdZ6akffndUltDbE0NuaRnODZtG0MEZhfbwZHOb/8YEbaaFrSVKNa1LDmLSkva4ZDdI6aGsRPVGrwFq8oP18xJhtbe20t9KWjKSGMbqO9nNJW/L8Z+idW7j7Hl3PFdpct+y+QAyFwj62NnOIRVJIp5rZLzXDKzXMSCKkOThAhL15e20Z49evILdDL729GdlUHJX8HrWK1BPxQFXfmLfwMP/Dex81VN18Na7rOlqQUXRfH9fS+2m7u7v2CXTJOe04pylNiQxbl2dGFQkq4ksiSL2HwiHbVUyvvTIUE3PPGdoS9pH/3PMH9KeV1zWq11yujIXFNRIL6BsYQmt7J0KRGD3IqDlEsjf1GkOxWEJubw8rK0tYmp+0XdO62jJIxMjENIFEYCOLjp/gTZEsa46PtiCXWSM7UyvBtJV3OBql40nJWTMPlDyqVd9EbRiqfcxFXG2iENFHhASytzwt5GegczWEbvvDTA8iWCdj4fOlEuaXlpAjd3b09SCRSSOn1zRIn4qGkmhnlnmu17uK7KTbezsoFXNoTMeQTJBuZjt5tPkE3hdEpyCFX1A2PGWjLKdoQwLhpL6bTEGwjSSEW/sJbNYSWC6GML9Vwl6xYsyphaC2DYsakKk5T1WLwyRJ9I+JSp/r3EOTGg8MOulZoXpZopqeWVpGIJlEJNuMQiyJfCyFLfbuLUpWHdep5vPRBK8DmFhawPr2KrL6cD9RVOFtHkkzodL+2OON9Bb698Vb7NLlfWxv72ErVwQNStQScZTiKYQGvvDb3xlf3oJwdGkLlyYX8frbb2NlcQqn+lrx0GAXknTxgzWpKyYq/jMRScHMo71zwiv7r5MHBlypRSRJuwpxZHIWb16fBtIdSPYeZ0cN4NrcBkbmNzEys4FRvbM+N4/x+QVcvHYVr7/6AvLrs3jsRCdp1YRYNedtzaJ+r/E70ueBoskvEzz6E7Uv6Bid0PGVXexnuhBqGcL0OtX6X48s4ycjS9DxhclNvDK3i+m9EKrhJAlL0Uq0n/ixDiQh3gE3hHlggHUsUZVv7OZQ3I+iFMlgcr2CV8dW8Or4Cs5PruKtyRW8ObGEC9OrvF7AW+PTWNjcRCabQk9XE5LaRsVbFKMZjweXGL8EEO9QhUuNh+2df4o6kiwaa0CJGurSxAJevDqHYD6RQSGRhY5boSRKyWYEMi0IROOWis+DpqooZsyQ1bWTy3Y8gp4J8CCpNO3tni9UsblDz5EmTiTdhf1EB2rRNrqOzaRaI4JU7+FoEmESMMiOW9JEBJm6rSWDphSdpmqBXro+BKYX/khpS/vdPPWPE4oOvsd+iD7YNcmV36NKp0OqXZWTDW2oRtMIlne2UNnZRpXGPbT5a1VblOhVDBmrGkKRnenl9JEEEocdb32riMXVHTJfGo2NrfTOA/aiValQRCmfQ6WQt80lirk97G5vYnN1GcW9Lft8YsbeECjZd3ZEO6fWRa+PKs1uF5wKPwBTu3Kl5am7d+f3CjSEavrcS9yWbFb0dY0TiQqGE2UMxoroD+cwGC2iL76POCWAhkv2cnlKwxolobjf8ajjfu9ced2I/Hf/4yGx9DGn1a0c1jbYOUMRZNMJtGfi6GyMoisrjKEzy2veG2zPoLeZ0rOwi0i1hGwiSklJaVnxvopMMXDwHjuz4P+PMYoKsrzN+vbQ3Ze2qlY105bExnbZnKFwPI50Jo3mdAxdjUEEfvT6mNrK1LW+yajXMy5eeA0/+vM/Rl9mH3/72Scx1BxDpMSGo+Fpal3u+b4MfzWGU/1uak8pOdDZYfPfX2BEMlua5yxofj+GH7wyih+8eAXHzjyFr/zG30brsTP0HNmb1cHFZKoyw8o+Gh+7jP/wR/8LcnMX8XufH8Lnj5Gg2ERS8+naS0iGTyDkAn8CHogjfJRGDpuk3A9n8PbEOv6ctI90ncOv/N4/RvvwwyjUwghmg7toCu0iE9xBlsemSB6J/V2qsy1s0eDPFws2Wi/l91GAoz3Y1SpfqmB1cw+5YgXxZByNsSCaIzW0R/fRyWNnuIqOaInXRXRESojsrCK8u4q2BMM1sONqcomq/HBM7eMO6vZerzZ6yEH08EB18Y8dOFcJYHR2BYsb1DypLBqzmgKOoCvJFAKVHIKUiuFyHpEKGbNWQHMignQibgtAclTr7qPwUuWSm65B3ZE/u1+HD9DPTBVKuYJmfIq0Fenw6IOkiWgIodI2YqUtxIqbiJY2EeExwutAbh21nTWEintIM1wmFYc2jaWhRKL4dCLKMTTn0GuLjxV6NDC8yXMyrQyfKplzdSeP+c0CgqlWDBx/CMlUIyq07UN6JSgSSlAyJhAJxhElJthAjQ2NiEejKMoJKJWYIFMUmOq+Nbj1kB8SsE6uXm4vTe11HwnH0JxtRjqdpHrWtx1psnsrtPU2pt5x0VsCBdJE07u6r8/byHJy7wE5BlXaptqZtsNPwDjC7HyHZvOT3lvUVsu7OdSiCXT1D6OhoYkkpKYOxig5S7v0CErews4AtFGqdpbt7Oqht1rEwsKCea2hsL6jo0YQ7d+tR9zk3n2HIox/5Ak7XC6Xw9bWJsKRqPdtnBj0vhBr6Q2JkdUYXuwmJtbrq/oeT0MqRSYW0SULHCiO+/n5Kf7HDf26+/XX0THkAdIez5WqmFrdwHqhimxXH5LpJvowUQTpAwQCEQQTsT1KzF3UqMZq2q2W0iCRbUJHd48x4/z8Ar3YTTaMPC6B3wwPIvhl11EowzyAfKFg39tJJmL2rhBFojGlV2EHvNZEhD5ls7u7Q1OniiTtU+1dSfIzgGws387yUeAfP84g+ghJC+vMGiMOYos0n1pZRz4YxfFT59DS3EmzXZ9zpS6iHxCszb6KcGUBycguYqEik9AGADU00qVPpJLY3N6xFeIivDxzS1/5PbCg0nvI+mjlfz6vT64EEI1HDmxHEdEU80Fl3YlW/Os741pIHCEvUvO7RS8kttvf0u54+Ak4uvmd1kGNv0A0hs18CdNL20CkgcKwF6lUg4XUN/q1E3Rw+/yPUB75BZCbQ3h/x772Gw3V0NvbjYGBQWzt5rGwuGxS1L6DKNXuzQI9WEhGI6fVowimzaP0tp/e+mtINyBO6ak1hnKUFI//9Mc6u2vtvJfXjs6BKp1GeuomTvVMUjhEiasVXTpnHKbPw8cQ9SNNVH/7Zrs+5KARHz3j/VAIedJ9fmUTu3tFtLd3oa29DXphdZ/8h8oW7adVOqg7M9gbex3FqQsI5ZcRqe4iQe9zoLcXQydOYn1nD5eujWI7X0YtpEyYBSWLI/sNcJNb9w84Zqzvwf67PFrprpVXmUwjGhpTZDANC6k6Gv5wJNWoqN6rrlSKKNJTj0YCyKTjiIclOZ1mcXsUa8bDbal7aIl+3OBGRhAxPekptU4unNvYxrXJRezs1nD82En0dnXSRNLuhdsIVFZRXblMb71K9US3vbKxhMr6IoL6TFwpb+9xDB8/jZ6B45hZWsfYxLQtypUha59q9iUKszyCukc0/+q+QfXg+mupYEcsnWuojHdNtdtiFx6d5DxEdUieoFou0n/Mk/W0eT/Zkban3klXHlWmJdvcXphjPrIJ3pn3xwH9OosupB9pZAvVxT+kXKEcxNSitvrZxcDgGTz2yBO2+r1c3CXf5VHNLWJr/iopSSbUMtry5jIKK9MIFTZsfj0RiqK7a5DMeQK75QCuzcxjiS5/nhnqywlqTmZv/x8ckCTzpRmZkx0tJFuRdRJjJuIxSkRt1k8GZTh18voYoniFDpHmfRUmxrBic72F6of0p+vqYn3MwOcJHaWBykT5MTKVSL9qGCtbFUzM7SDH81MPPYre/mH7hlOYYSKUniiuobY9g2CZTBimRR+t7KFI5jQGrUoy7CORSKO9sx/VcBxjC2tY3MmhEtHb2DJq1RDCm8P92zQeu6lrk/u0nUw+l2Pv3rfPTmsJF/s6f57EVGhKAsURExcK+YPvDtkzd/CO9f8/jlDPmP7RY9B9qmzSOxTLYG5pDyOT60g196N76AyidITkaMrBrOxsYXdxhibmFrV4IGbfywlVCwgWtlHcWqYkKNr3tbUIYnDoJNp7BjBNl/+NK9dpe1YpZ2lT2euxkjpS4WrM+p+Kdb/9vDJZWXnuHykB/eV99i0hspZpcAvDf06bu2tdmjNIept3zmtyoh29584RqPtZ2rz/sUB1YKH4wkfvnt7xR5TqfAcj0xsoBxsxcPIR9A2dsNeE5GjKpCrmdlAig4a1KqnCBNwijqpjyj269nr7kkSOxWI4NjSM02fPoVQJYGR0BvPLGwhHG1CuqnHoDVDGmopk4RxIbvh4f4GKKCFoRVXxyJiSnq7ocnncm5Y6szoR/RU1h3UiKhEe3WKXuqr7oDl2W539jicfcRAtxQ/iC9vGzI77iKNUi2CvHMXIzBquTa0i1tCKR5/4DDo6u232LRrW6q4aSjktS8zTPqUtrxkhtzZWPZ7Je41Vo7rTnvCxRBxnzz2GYycewtpWEdfH5qnWglSBaYbSJn9sJEawnuNJGTlD95dDJKRM49GVi+eSgEQd7T6ZsEbGdEgJSroInUT0pZ+TAtYIflqilf7zhpOSfljv+JH+qX6ihSSkaKUtfUKoCEVPMmeNPFJFErVQC8aWinh9dAXrFfLUE5/H0IkzRjfX/elsloqUk9q+XCOhFA1V/tfLBQdeZpgcT4kZoO0VDvE+W6Cjuw9PfeaLtBca8faVSYyOL9AzDVP1i6ud9LCW0MHD+w3qy6Qik+/c6IYn9O37jUYmqXY9cMdDqSmQTOW5JKbHpA4sBQ/vx9rfSxANfC2jtVn6Np3oKRLRfq9SkoYasFWI4sokPfTNfXQdfwyPf/5XkG3rsJGRoEk3Skoe3TeNauRJUp9tQnCENtKaGOGZDQE4yRKJxjEwdNw897mlbbz21ggW1/YQJrNWZae57UIO28rApSl0/eLIww8FVO16PCywiMAyikGNII7Qjkl17p7r56Qkr0hUF1shfaZ0qTr48Ov7SwNW1Tbb0NHYU+/masyyTCEQpToP48LoEt64voBAQwc+88zX6Wj3oJgvUCDKtSb9PPUrqvvgWJOJum+li8iHZDbVxKNefu/u7sEXv/RldPUNYXRmBW9cnsBaoYock9DwUlHczgwsBcuHcYm+s3Hj+S8fXZnEXH7/s/LwqDqKsvbcD0O0n8IovD1zX3PT1pBmbsq2tARcGKXjwrrjRxn9Oupon8Zm3fWJXu18ra8KB+mdi4bFYNjeaH3h4nVUYml85kvP4OHHHkc0HjOnW6u7jNZMw28fM5/IprL+nV8gSSCC3wC6xeAW8dSps/jMF5/BdqmGv37pDbw9NoP9VCOKkQgLEUCJgd3bMy6W0F35eH+ASmYd0q7YP0Vo/fTAnurKu8ejwjnUx5wSiMcS7omFd3AYxtXVT+ejDPW1kzrWLs5h2ox6C1W03I8kMLqwgZ++NYHxtTxOPfFpfPFXvoZMtpkP9xGL0wmixq0ap/sU9EHM6Y4UACSpJ/b0s20NPUmqlTdqTa3YefyJp/Dkpz+PfC2EX7z+Fs5fG8NudV9f2rHdMGS/qhe5HuDNDBjyDgtkhf5Q0M9bR9XP1dHKxvr7r5sokB9GeOO1tH6I0lPapEyb25bSKRhrrHeHnCRVujLqFceS+AihT5fDazGm+zAra0xHulqsolSJ4G2q8udfpwm4V8aZT30Wz3zz12lndiJHR1ubWGgNgxjTpSMUI+rP5UHJqSZhw5j4dH1eYNN4Hu8qX39cr7W9HU9/6YvopQ06OrOEH/78NdtwoBRoIHMmUKYY1ze4xZ72lQgzj21/EKJS8HO4f0Bs6Y9SOHCMatWoB96IRqI2m6EFI8VyxTqj7FTFVreUj+rObxL/gQYyDM0YvT9W9Y4eLxljGVDA1fajqIWz9MzL+PmFGVxfzKNz+By++mt/y3imWKEq1/CQYvLPOUA3B7EkwftvjGpnHgpM8xNd45WYeHdfP7707K+gpbMfM4s5vHlpAeu7tMP0jncgZo3lCq4YYkofDwvy7kX6ZQFlHaVflCZJQ0ODqZdSqWQfW/Vrrs56FOjLa/+oaBQFLTre3qXdxEbSmk4SXHa7zYjcUNcHH8SYpJcwSMYU8lw1tG5Ir1y4H4rTrmzBhZkdfP/V67i2VEC26zi+/u3fwdDwKezt7pHmJTKddIrsU/nRbq/XenKJ6kK3jz5PnFj10YnVw3NFYTFYILVXKBLCozRqv/r1b/G8Ea+8cQ0/ev51zK/k6KNFUWL7uEUQjqFVkIM07frD+Pn56kjkP1O9VAuqU4VSUB/vr1TL9tw5b+7ozokMqx1QIpSeUkFiUL1W7OxWMuSB+eLX18vro4L8d4DSEaSFtiovki6lQBS7gTRevr6G516bwvXVfbQOPYpf+72/h5NnHiENg4hF9TKgBunFnI6u/GeJu3Q9mnnnTm/fIiiSs7mo3uIR2p6fwte+8S00ZlvwxoVL+MGP/wYLq9uoBtmDyKR6WV7r+fTivHGA2lEluUW49ZAfAFQeFYiVkgEjiVkqatUA78nGVmXrwL/SvqViTpFXr2zI67ddjy0Ee6VJT53X44MOolUQIf32Q5Ro2lEvSAFEbcPqVaIprJcjeOHSDH7y6jhGF0to7juDb/zW7+P4mXMoazCdoIXd2jDBbXF0I3jtUQdaxG30c2QU5zruNYnB6wOpoTC6J6nAsPr8sKY3n332WXzzW99GtqkNl+kc/fD5FzG7vEMJGkeh7AZh3d7nVH2sjEvHy/Nd0M/zvcLcPuqffyS6IthpKKIFsftYWV3B5tY2haAkqq+aHVJpuLDBkL0hoN1QtABEX3Aze1UPJTwttPfjPd12xwcZWSnVzY5kS2EwgVAsi1qsFZPrVfz5C1fxozemsFHL4vRTX8Hv/r3/i33+u6zZDjqQiirw2c/Y84A2vKF/HtqBt94hOZ2F+R5ABtO6Tu3hqSySbKhnnnkG3/jmt9GQbsHFy+P4/o9+genZdcTiLcyENqh2JtBMgUlRZen3EskbX/X7cHjmnx99fmcgJjsAFkG2ZiKZRJgMurW1hb3cLh8wkEchhTd0wc0hSqfSCIciKGq7Go3VKaye6iC8L8GvQT3eInhMY944fQ7bbJfCZyMXxhvXVvDDF6/j9Wvr2K5m8Mjnvorf+3v/CKfPPsEsYuz47MhhN82tDm1vU1AC3zR/066H948wp+XvUdcvvqHEsMXTkahMyJzau1tSRg7CZz/3NL7167+Jzr5jmJhbxXef+xleeGsEJTIoGjrowaXI1yqk7DUtCuC5HZkGi+FQuYX4X4zso1MBwrsBSkeGtnURVjUsSRiL0BbinX0SXu8HWTi/2xzNWQ5RLJYgM8don+4jly/Ta6cHy6COcu6/xasj9IcLVmsWzUO7Vjn9snpgjawT75kIJN0qB0icEWTbJTuRj/dgbD2IP//ZZfzpD8/j6lwR7UOP42/9l/8NvvVbv4em1nba40UlSGbU4g9tSqx2Vd5CgU8b/+iDa29B6B9+vus7sX2tTwyaUVtLtSHRMUhmSqOi94cZiILWL6554QJT+mxkjfnZ+zXErs5OZLNN9GJ3sLi6Zh/RX1jdQCSWRDrTxHLJq2URxaQS9yy0zeezOJauGNGkq9+z7KaHdwaO1VyaVgVLUi5bAFt7JVybWsYeDajTp0+hm/WwcU+V18va1I9i8Li+uY6JsVGUdrfR29qI1nQUYRRs8Dng3nZjSOIBc/rHewV++/h19IHnxow3MgTB36bRq58L4z2XY0FXWm/j1ipFa5tAjHZlNY6356v4+dU1/M1bE7g2u4VophtPfO5X8I1f+1s4de4cgtRAes3FRI3H7ErVdXQHfju4W34Z9FZBGYWtZRQ35hCt7CL0X32xl8xZMHFbphg25uwcolBrZCZ0aFhIYxyWV3mZMcujy5jeGo1dNbC+Ean1kJ09vTh+6jT26P1eHBmzT0LPLa2hTNss09SMeKqRYTXcpEqQAExXwxI8s3QOepcKrJ5rJ0SV4QODIju0/17aLskAyxbC+OIaljd3MTh4DH29ffYOu+qooAqjz09rqk27PdcqNYxcvYqF6Ul0tTSguzWJeFCb7ZeMOY1e5iQd5nvvwKeRwC+t///G/Hm0uuvcs6n9qAfBXEOrbUDHNtjQhHI8g+vz2/g/XhnDn788hVeur2KjFEb/iYfxtW/9Nn7lG7+Otu5eS0oOo8DYw0tU5w7ctd1j+v7Pbwt9KKu4uYrCxiwi5W1Jzp7vxGoF0jKIIlVtLdWCeMcxmodpqioteWL5DxInsARq3MM6KXFWlQH1Lk6ZDZeilDxx6gzaOnuxky9Sgs7h+uQYphfmURQzx+L06CNuKIK9zO3K5sYJjR147YhHDPjngvqC3B74rOiV2EPlRaaj/Ti+uI7ZlXX09g+gv28AUX1emRU/1Bmufm5byH1MjI9jZWkW3e1p9BITIW1MQQZlwi5tNdJhTvcG1BFUQr81BF55XQ/xjoIby+E/Y1g7SPtRH1JaaJSlUI1hsxTB1YVd/PjV6/jr8xMYWS4BqR6cevSz+NVv/Tp+lX7GyZNnaFNSsNU0WyYasTTK3uovUHnqj96ZhTm4YttTC9OsKm6toLA+h1hVzPkFMiclp5iT/rcxZ6JjiMZYo2NOSQ+vTvXkNuCJn6VWpSiEv5pcNlkXJdDQ8AkEKG3mVlYwt7xKJp3B8sYOoqkMEuks7VXmuV+hke2GGGx09IAhxZzKQXgk59sGP7ZjTYGOIuQ+NUYEo5SckwvLtvh18NiQvUMtIh90ex6sz/BelR1wY2MDywuzSCfCONbdgmSojAjVoJYZuhi/DOYkHEnatcZB9/MZ1KA+oM5ZPs850UhPmTZhNZJCOZLB7n6Drb38+duzeJ4e+NtTO9hDFkNnP4Nv/ebfxre+/Rs49/DDNp2tcWJrIeskPNKM0IJt0e0gx/qsPXBkVRgXTtQKkX56E6NI5oxW3oM592/CnDr4aFB3346Wo7vSB90rlQoaMxmcPKO3OAdss6yVzR1Mzy/hyrUJrNAeTSYbkKGkjdLJ0AJn5x5VmIwYU9wgOEzXQf35rcKNaRAcNVnvECZXdzA6u4R4ogEnT5xEU1OLaQNXJwIPJhHIoXrPaGdnGyPXrqBa3MUQmbMtGUJUuxp7DOLI7TPovQKPDQ+ysCvXn71zhwIeVQG7RaYkY2qD3CL9ilqM/kU0i9ViGBentvGXP79IphzDxFIZ1WgHjp36NG3Kv41v/9rv4NixY8xP71LtWRt7JWDSQp7JXmWB3F0vbzv4dHFQH0Ioea2doYtbS2TOWTLnDkL/4AvdjjmZaFEOUbLV1HotwgL7ap14AN6Ff6/+mc4liXRmwwbMVZ+BVhodHd145NEnMDAwTNUPrK/TaVpcpXqcwh4dkobGJmQzzRZfG2tprt99kMsvuo4+6Nzl7HJzLHF45xbAIjjJWaH9u7xbwtTCCr3xKIaGjqOlpZ1BpMIVWBaxB7wRoH2tDb1mpiewNDeF9kwC/S1pOkUstzja0mYZb7EodwbKx6eTh75HrksVwlWC1y6cZrUKlRAKwSRK9C2WckG8NqJFGpN45eoi5reDSLQN49xTz+Dbv/H7+No3f9PeJVOV9OapUtG2mO7j/cpHeVoGhn62DnTio4MjjwxYKpbRSc5F2pyUnOUtSc5D5nTeeislp5iz0ZjT1LXl5mXt8j9yzwc7ZwBzJIwgVNOsgM2fsGaRcAT9vQM4OXwSjVTr+d0CFskQExMzmKM01YyDnKZEQ6NNgWrKS44TOdXSOeosKTMf3lGKo48NFO+dd9VwtVAUW0XakTMLqDDfUydoL7d1G02MKdVRFJTRhep4+tqYmHNxfhrNqTC6m+gUkTm1E4gzR3i4SXb3AlwbewxZByb1jWQsP09l2ZdFU6rvarQJK/kQ3hpdxI9evoyfvTaO0YU8QolWPPrpL+Fbv/67ePbrv4q+gX6XLB29UJjtILPFDGvdFF3cUWg/6xg+6ClL50T5EVDYw/8qZp3kNG/dHKKu70RpyJvkpENUpeRMdB6j/UG1bkNJiqr/7iiwhrKzdwc/U/uv8vFXLVeR38vZYoshesVDtO0aGmnj5AqYpz06ObuIyfkVevoBJLNtCMVoA5FbLHeWzwdn3fjgl+b9SkQ4EsTFsf/shHphb4GSfIlOUTsduYHBYRpB1BwmKSU5vVzZKHKMNFO2vLiA2YkReuoVdDY3oDEZoYFAVWfmiEv/XsNhDqKwo7jLmT+WW8IlTxoWWccqtWE1nsXMWgV/89Y0fvbmuK1OXytE0D54Fp/98tdoU/4env2Vr6Oju9s0WKlE3tDKDJJfvoEbQlR2ysuNSBz82AOsBBbAwwPG9I86c+U8vKU7vuRcNofI1Po//Lwkp2POA8lJ5vQlpwqhpFz2dnIAdafvDlZgF1fvi2jAXm/bqW7NLU04feYMzp47xx4bxxi9+qt0mEZm5jG/uolQJI7Wtlbb6EDbgWtuVrmq4wpM2R549rx5pIe+W+n8+35Ylc19tW6djtq1sQk6g9r17CxiyZTNAMket1wsqoZZ3Gqm/N42xq5eQn5rFX2dzWhvSZnHKQato/w9BpWsvjaCfWqhGtuPnUgdLJyiCk9hZqOCF96axI9eHcH50XWsl2JoGziNL3zlm/j6N38Dn336afT29zF2jR2wTDJQdWtql4kqPUvZ04iOL1y7OnDnfv4H93nixagDP95hHJOcvkNkktOY03OIPObcr2NOOUTvYE6Bd3Jw/R5QF8sq5ipH5G3Nz5f0Hfd4jA5TP3oHBk3Frm/tYooqdnR8EhubW3SW4kg1ZBCJybNnH2MaGk4zCWULLYx1XLoGTNyyfa8SurB+7WRr7uULuDYxi1w1gL6hY8i2NJNqDGESyAtNeiimbK7c3i7GR69jZ2sN3e1ZdLamqf20EtwNQh+W5x6AkvaqaavFbPDfSXe5ZTXWpxxqMKk4tVbFi2/P2Z73FydX6JE3of/kE3j62W/h63RyHnrkCaTSDdRSZeQKeUuc/ZH/xabuqD+HykenTpPp1gHYI8eYRi5dSQrZWT34XKGjC39T5vwHZM6oP85pktONc1YOZogU1VXa/XcFOlKo9wDjRQstdeAzEJHJ+i+J2bbePLa2tuIcpWhfTw9VSpGMuWE73I1Tmi4sLyMcS6Kpud0+3FkqFZik1gYy5hEG9cBx01FQJn7+B8CGVDQyW4H3Z1dXsJXPo6WzE51d3fTeE1ZWVw+S0juy8Nah19fXze5Mx4Hujox9LAs0k1yi9fncA2D+GrrR5EBZew5Q2pVJ00o4ie1SFFdnd6m+5/GLt+cxOp/DPlX60NlH8czXvomv/uq3cfzkaQRtU2C2Mosd5nmMgsDNfyttVZynPhKMnXhfY5r+fdHEBI/9jDr+I8P6M4E7U9oHZ0Q3QySbs7A+j1iVzPn3nyZzekNJNgifFHMOoirm1GqiI1kdZuEf3w+suF4hnNTkUUn6wHM5GGZsk0IRisSurg6cOn0abR0dKFZqNg165doo5mkTFkoVW7LW2Nhg8+EafnLDPWRQYwgBr9lwOqr8rg71mfrg7musrsS4Wpc4u7xC82LWnLI+SvI4zQ1rCEvvEFQVfVF4bW0NVy5dQDm3aao9k9YOKgWNHtoc/t0BpVOPrKc6pVWXbaQJjWAM+7FGrNLzfnt8Hb84P4VfvDWLy5M7yKMRx89SUj7zNXz1G9/GmXOPkubUQowbjcZtEYtewzVRwcaR43k4gyMK6b7L2mk/ZW0Xhu6ed+6CHYJd6P7RZ+7KTgwOmHNbDpE/lCS1TrYU8UuaviRzyluvRo+q9SPg3XjH/fcBMZHhTWK6e66klSoLyl7c3dPP3n3WmCRM+3NldRVTU9NU+dM2zqjVRA3acFQDwRUyqQgkJpJOMrVzI4Pqyt07RP7nwdQPmb7ABl/e2EIomkD/4BDS6Qyfh+mlkhZeeAfufGdnBwtzLA97fBMZM5tOIhGhQxdmjex1BIHCKt/3A4WrD1ufX31jspBM2/hB2o6CZDMfxYWRNfz0jSmcH1nH/FYA0XQXnvz0M/j13/hb+NIzX0Y/HdAw61WuhkiiKFHrbZmH/fk/nouMOnro4PBMpyrG0efeuccv7r47N6gPePTCQC2kj4wVt6XWF5zk/K8kOaFdFqjWNJeeaqrz1l2DHGbnoRrS7t5w/11RcPSeVKLPrC49Hdy5FpNIxWhFS0O6EQMk6imqoOaWNuxS5c4uLGGSTtPE9CJ2qN1T2Q5EGpopPeI2T67Pc2ug2QSLl6Yd2OiUzaSsOp0eisRqCfZblSdKqUevZ35pFSvr25Tc3eju7mdZ6MR5Y3qK5lhHaYZoqzVSeq5ganwEUSbb1pxBcwOlEQkd1C7JXthbA4Xzw/pHcaDK6FS4diOp0oGrhhKoxTRwHsPLlxfxk9em8ProJuY2KUmTnTjz2Ofx1W/9Fr70la9hkPazVqBLO+oTiUHa9X5n1cHP9UZ0oDq7O6LWYXnswj8Y2Llo7Z37MQ3svvez6HwiQeKFl44O71fInGtkznnEK3SI/+un+74TogldIfFzVdov8Qak5BBFs2woVkKtWgeugLcLrqiqkw/W6z08TNSFs2s+0FxvhU5TpVS0hc19/f0YGj6JJKXZBrlyemEDl0epusaXsFkII5rtRrKpHQFKWQ1AOS5y5XekJffsa6keH1jGzlaViqqyI8iMKRQrtHOp2qfm6BC1s1OcsbzF6UpJhrtLS/+JZNCNzXVMT42jVimgv7sd2WQUgXKOnrsnzRX84MhUXJEIdsOdHt4k6Ny7TxvSMRJVdyTFdkqhzLZZYn2fPz+NP/uby3h9fBtr5TRSbcfxxNNfxTNf/zYe/8zn0N3bZ6aSthVSEgGtIGP+MmMOCe+jgDT3i6Eg7uBQ7WE/BwrmB/Wh/trF82LcwEMOeE9lsQTpXtEfEb3yYs5Nza2vIfSPn+79jjbxqpCLK6EYIi2diHcO0GuWzcmG9Dj7bsCBpDyo2nuhtQslliQppUWlSieojGQyhaHjJ3HqzCNopHOULwWwslWgnah5+zns5EuIp/QR1SglP71NmghWf+ul4lYhm9sfLBf5WCYN9ssD1WLiIu3a+aVNeq5ldHR0obOj0zqKUYKNdFBC1YWdWkNLq2vL2KAEbUiE0ULvKBmqmCQ4CHsAvDpyQxcsoSskUeXUUUykhTQVlpJCItqMzVIc4ysFvHRlDn/1i8s4P7GB7f0smvs0Ruk870cefxItbW2IxhMmKe0TNXpvR5KXaSob1wYO3NnhtSuIz1aHv8MgVtAjMXy42T2BtbuOB+h+rjxqD9Va31ul7Z/fQWFzEZHyBkL/6LNd35HHa6NzkQbE2nsRaepm0KQxpyuK+y84PLsDUCLvVpN3AY2RaqWQ6Kodcpuam8igp9BP6RCPx006TE1MYnRsBIuLi9jdyyERT6GxqYWMF6Q36xNZ8/ZkTNbZGfFMXOKCDakV3jGmFaCjMzO7aENafX2D6Oru5WMpHgbVP53ZkcC0tUxsaXEeY9cvIx7Zx3BvK9LacJ+SVOWVGrOGsAsvnkuN17rh33edRw1mS9a0qDnTir1aAhcntvDSpXm8dHEKb15fQA4NGDz9JD7/5a/hV7/xa3icTNnY2GidWbM42mtAjqaYQF1Q671MYPJcWFeQewb1Ofj5ury9c/6za2tUrfgic+Z2sUebM1CiWv+Dz7V9Rw9LVGvVVBaxzkEE051U6QkS00nOuw53mKSKpBelyvkiHZYGnDpxAsNDQ2jkeb5QpFe/jJm5RcxSPW9tF5BsyCKRSlsDSQ7Ze9OkjCSz1K6YR83INuU5JR7V39rWHianF8ymPDZ83CSRG5Cn7aZJBJGVccUMYV4vry5jbPw6qlTn3a1pNCco9fcLloeTzGI6r/A62H/e0VgtJaQks+z+WiBC1R1je8SxXQ7h+uwaXrgwjdeurmFipUxGTWLozFP42rd/D8985Rs499CjtnBGw3RK05jTF75M0RjAOqJKrBLohp67EtxrUC435lR/rU7rl1Woj5LVynuoFMScn2/9jjkDyTQSXccQ7RhGJZylYxFni93ood4fIGdK7ztr3yJb/MwKNWYaqe5PUJqeJTNmsLS+RcdpGbPzi5iYmsUqHZx4A+2yRg2sa7tsNiJVZrAqSeoIY82nNaVMd7fkhrCKlX30DQwhQwlc4bkWVZsisrWntFeZhpyNarWMcTLn2uoi2rIJdDfFEA+WTeXbe+0so5+LtYYh72hhjDxv2bxaR4k41XcQb08s4/k3r+OVkUWML5MpKw3oO/YwvvKN38LXKSlPP/QwGlKNJu3FgLbY21pZ6TIf3vSH0L1c7dSFUBi7c8/BKW0/X4c3gqO8e6otNwP7JRT0Ccd/9Lme7+S1S0OqFbHuU6g19tJ3p+FtHq2ftCro4PDswwOR3TGSaxhhRcvtwmGks80YphOjsbx4Io2NrR0sLlHq0Lu/MjKOVarqaCxlGIslaZNRO2hBoy3RkxtVoYSF2a7T88vYzZeNOdvau0gOTXOSJsqQDW9lEIPznma5lldWsDA/j6aGKPopOuMhhpG6It3FC5JgykedSbuiaHVQaT+CQIKSL96K9XwEF8aW8ZOXruC1a5T826xnYw/V96fwla//Fr75zd/C8ROnbCSjsLuHakl7rbMoQpbFgWgiO1uo3yGDmhlzABbplwIu96Mo8Muj/zI5NBmjbzwlEnT+aBKF/s7Tx78TzfQg0XMKaBkww7tGqalNEawh7mfwGkbmmYx/4wBzUEDHKYnh48dx8uRpNNAWkw23vZvD9MwCxiZmsECGLVYpgeMZxJINVIU1SsacSTqw8cltWFzbxuLKJjLNHejsoW2bSB0IHJOD/AvTW9c90UqvrCwu0B6kc9TdGEVnOiEf24ZJZPAHyawU1TaTozcCqrTxy5Es5jeAN68u48W3ZvDW9VWsFyJItQ7g1KOfwxef+Ra+RLtyoO+YdQI1nlolRsdNNqVWC7ndOKxQBDV1PbKkxgRCgRfQKnK7eHfgIDXvn5VM9jE7rTSh3jWMUTaG/stvfuk7ycGHgfYTpHQzuTdO50GeK2OqAlYxS+UQdNsdPjxgAVSGQ5Rk4JFo06KqJNVzS2sLGfQk+voH0JjNolCu2QqocTLp5fEZTC1tIFepIdlIlZ/JUKJFkOd1IJwgMxdwfWyWzBRCR1cP0pmsNbQxo8rA/8pPowKSZpoGvD4yiqWpKQy1t6CvjSYE1X2IvB6IaPGIdsagio810KFJ0IbM49WrK/jRKxN45fIiVnbDaGwfxqOffhbP/upv4AvPfoPlHqL0pbfNtG0NpdQ3c3YDYJKL/s9dOftSV4cSU6g4Dr2zD8KcSkqnhyfvCQoluFlIYyvvqJK7G3ZBi4l2Px3T0D/5J3/wnf1UhzlAxUCSKl3bJKtv+oaqTnWiyN6No4f7BFiagwKxrHJ62FCadxZDiTG1ivv02TPo7ulFmJ7wbqGMpdU1jE7OkFGnsbRFVZJopPOURUODpG0IM4trZOh99FK162O1QXuFmJJQUosZamBfP0luOR1bG1tYpZ1Lix3NaZoP8ilDtCupzvXlku1yGJMrBTo483jx4izentzCZpk2Ku3JT3/+a3j2q9/C409+Bs0t7cyH6SsvMrRW3/v2gTSFWsMYUueqtydBTQ7JfKgDPT5E7/8R5rwNOAj+/vH8EDcNeXDTlVXl1i0dJT3lIIb+8T/+R9/ZjzagGtUAL21PBeFDf18kg8OTmx0+FLAGuRHtwMoe9EInT+za7oFMl8IgmVTL9IZPnEQy1UDPfMc+dTc2vYyro9NU+/NYoUqPpZpoe2rMcw1tHV3o7etHjNzmpKfMHi9jHZl8IpFEfi+P0ZERFPI5tHe1o7ElS9pGkUeMTFmkhFzCSxfncW0+R/UdRXPPaTzz9d+kTflreOSxJ9DZrQ38NVjOPNzwgWkCV0fWzpCMyfsmJdVX7Ceb2arIgzuxKB4K/Lv288vu3b1lOAh+a/HeK5SVX4Qj+CURik21XiDws+e+u6/pPm2fbSY+a65Jf4FV8qASdcBLJXnD3V86uGodBcec7pmztRxIzlm5ybAaStLwTzgSsRmomZlZXL5yFaOjo5jn+cbqMvK5HcTjUfPSZTU++ujj+K3f+R1kKIHL9olv+fuOVtbTqXaD0bCNtf7pf/j3mJ2+hi9+7iGcO9XF9BZx8fJ1Mv4sdoohJBpb0NHbj4ceexxnH34c7R3dNvhf1fsrSkfMyKKz7Yz8h4zkwOrGUmkhtJOSbGLZyhbEWs3Ft6sbQRRiGJkX3vktQ11+N0v5dsFSUppeO7mSWwtaBwz8+Id/QX6Uf+pui9i2rxEbxG054ypxBHh5d4p370CVPsKcJKqYSCW3jXE1fMMGFUGclAqiVKSUnFvGFTLq9bERLC/TucnlUCwU8NRTn8Lv/59+35izVChSzWozK9JAndnSd7Mxm1TrP/zxc/j5iz9FqiGMbEMEayt0cjYLSKVbKbVP4+FHH8PpMydtIbVAr3woEdu838rDm0rXykvwjwRjVgvjyxwLXIce8FSxDmP6YK18XzCn4Gg7uRJbDqxo4IdkTg1Ny5u0AWl7aNPwHj74zGlV5j9XbZVdR6p82jVWB4azJXvBMBksbq8rb25tYHxslFJ1Bmtr6+jr68OTTz5pnyCs0I613Z4Z29rK0nY/Ldj9+Qu/wPd//AN6+gu2Wr61pQ0Pn3sMDz/yOB55+BFksxl7UUz5s5+YQ2VpEK3Mrpi8ZopWQPv3HqAIXiSCQtfH8M91dKEcU/p4y6Cy3VPmFChd11KBH/7gr1g+EvsIczrJ6fDBZE4fDsppBGBNSNwDWnj1dQygwXA+oGcujREK6917euCUsAVKThp+Ji0dIb14pnv45xFC98S4U7Mz+PHzz2NmbhbHh4dx7tzDOH78OFKpFKUz02KYqL6lp/ikr9JWbGsoK7EroElOP3EPjl7Vw2E8/+CD4tTHU+nr21TB3z3dOrCy3JD4XQW//K7EZM4fsJwadtBN3RJ5RGaBC1RfEQNe3nKF7hfwONIa/IA768F7TmZREPGpfe2W9zT7IjAbj+irW59K9eDH3dzetp2Sm5qbbd2pmFIjByE6OWLFQwmpNERjH7z0vTxuBu/+xEvlMLEDqI/jHr97Ku8KHyDK7YFffmVE6v7guR+I3JaxXyd7xIt6kvlgd7ywCvegwEHdrF43A/+uF1LM4TGxTUHqlqlyB++ejqLJTHALRfL5PLQySh99tfHXwyQY8F1Kwrz9DnBL4BXZhxuTvbGsCu7CvEPs3ALcfoxbB5WM6Vt9XCcm8MqrwGHWFuIjCarZO9H/eedkMP+ZnAc5PDfCYVwyMP/bprfetRaJSHLqXf1EImEmga0UMsnsIa+FGjM1Z8hQz+6MAcSMN4Jfrps8ug24l4wpqE+fHee5555zFPXBf857NyuKBeUDHe91Ue8F3EnjHCVdHXhMeSNTvYM+N8v8l0DEDynbOwBXYnk7Hyv4oI1yY7wj1zdRw/dT479n2e9jCMr2OILeg48yqHFuF28GNwvn403hlgPeffgQsrwDUCkD+P8DpExud3cmnScAAAAASUVORK5CYII=;" vertex="1" parent="1">
          <mxGeometry x="425" y="170" width="87" height="109.4" as="geometry" />
        </mxCell>
        <mxCell id="kVAftEwxWt6-AihrWydB-15" value="&lt;b&gt;&lt;font style=&quot;font-size: 16px;&quot;&gt;Time&lt;/font&gt;&lt;/b&gt;" style="text;html=1;align=center;verticalAlign=middle;whiteSpace=wrap;rounded=0;" vertex="1" parent="1">
          <mxGeometry x="100" y="250" width="60" height="30" as="geometry" />
        </mxCell>
        <mxCell id="kVAftEwxWt6-AihrWydB-16" value="&lt;b&gt;Recovery Point (RPO)&lt;/b&gt;" style="text;html=1;align=center;verticalAlign=middle;whiteSpace=wrap;rounded=0;" vertex="1" parent="1">
          <mxGeometry x="150" y="190" width="100" height="30" as="geometry" />
        </mxCell>
        <mxCell id="kVAftEwxWt6-AihrWydB-17" value="&lt;b&gt;Recovery Time (RTO)&lt;/b&gt;" style="text;html=1;align=center;verticalAlign=middle;whiteSpace=wrap;rounded=0;" vertex="1" parent="1">
          <mxGeometry x="670" y="190" width="100" height="30" as="geometry" />
        </mxCell>
        <mxCell id="kVAftEwxWt6-AihrWydB-18" value="&lt;b&gt;&lt;font style=&quot;font-size: 16px;&quot;&gt;Disaster&lt;/font&gt;&lt;/b&gt;" style="text;html=1;align=center;verticalAlign=middle;whiteSpace=wrap;rounded=0;" vertex="1" parent="1">
          <mxGeometry x="418.5" y="120" width="100" height="30" as="geometry" />
        </mxCell>
        <mxCell id="kVAftEwxWt6-AihrWydB-19" value="&lt;b&gt;&lt;font style=&quot;font-size: 18px;&quot;&gt;{ Data Loss }&lt;/font&gt;&lt;/b&gt;" style="text;html=1;align=center;verticalAlign=middle;whiteSpace=wrap;rounded=0;" vertex="1" parent="1">
          <mxGeometry x="250" y="249.4" width="120" height="30" as="geometry" />
        </mxCell>
        <mxCell id="kVAftEwxWt6-AihrWydB-20" value="&lt;b&gt;&lt;font style=&quot;font-size: 18px;&quot;&gt;{ Downtime }&lt;/font&gt;&lt;/b&gt;" style="text;html=1;align=center;verticalAlign=middle;whiteSpace=wrap;rounded=0;" vertex="1" parent="1">
          <mxGeometry x="560" y="249.39999999999998" width="120" height="30" as="geometry" />
        </mxCell>
      </root>
    </mxGraphModel>
  </diagram>
</mxfile>
